<svg id="Layer_2" data-name="Layer 2" xmlns="http://www.w3.org/2000/svg" viewBox="0 0 1824.26 459.2"><defs><style>.cls-1,.cls-10,.cls-8{fill:#fff;}.cls-2,.cls-3{stroke:#000;}.cls-2{stroke-width:0.88px;}.cls-3,.cls-4,.cls-7{fill:none;}.cls-3{stroke-width:4.4px;}.cls-5{fill:#009448;}.cls-6{fill:#28388f;}.cls-7{stroke:#6d6e70;stroke-linecap:round;stroke-linejoin:round;stroke-width:2px;}.cls-8{font-size:51px;}.cls-10,.cls-8{font-family:Futura;}.cls-9{letter-spacing:1px;}.cls-10{font-size:200px;}.cls-11{letter-spacing:4px;}</style></defs><title>maplesotho_logo</title><polygon class="cls-1" points="390.72 296.31 392.21 295 395.84 295 397.98 294.38 399.04 293.43 399.68 292.74 400.54 290.37 400.11 288.01 398.83 284.81 397.33 279.89 396.7 279.25 394.77 278.61 393.28 277.54 392.85 276.48 392.64 275.19 393.28 272.42 395.41 267.94 396.06 264.74 396.49 258.97 398 256.62 398 255.76 397.13 254.7 395.95 251.71 396.54 250 398.43 247.66 400.35 246.37 401 245.52 401 241.68 401.41 240.61 402.36 238.9 403.9 238.26 407.35 237.84 409.92 235.06 412.27 234.42 412.91 233.57 417.19 232.5 419.96 231.93 420.6 232 421.24 232 422.74 231.72 423.59 230.51 423.8 226.7 422.74 223.94 423.38 223.1 424.23 222.89 427.65 222.68 428.71 222.04 429.35 221.4 429.14 220.55 428.5 219.91 427 219.26 424.43 217.99 424 216.7 424 214.57 425.71 210.73 425.19 208.17 424.6 203.68 424.84 202.83 426.35 201.55 427.64 201.76 429.99 200.69 431.27 197.71 432.55 196 434.69 194.93 439.39 193.44 441.95 193.22 443.23 192.37 446 191.51 447.07 190.87 448.56 186.82 450.48 184.25 451.27 181.05 451 180.63 451 177.85 451.49 177 454.08 174.65 453.89 173.58 453.04 170.81 451.33 168.89 449.84 168.68 448.96 165.9 450 162.48 450 161.21 450.2 161 98.76 161 98.71 160.96 98.28 161.08 93.16 160.82 91.88 161.44 91.45 162.28 91.67 162.92 92.73 163.98 94.01 165.05 94.65 165.69 94.44 166.33 93.8 166.97 91.67 167.82 90.81 168.25 90.39 168.68 89.53 169.53 89.11 171.45 88.68 177 88.25 177.64 86.33 177.21 84.84 176.57 83.13 177.43 86.12 181.91 86.54 183.83 86.12 185.32 85.05 185.75 82.92 186.18 82.06 186.82 79.29 191.73 77.58 194.08 75.44 195.57 74.9 196.43 75 197.92 75 199.84 73.41 201.12 71.97 200.91 71.79 200.69 70.95 200.48 69.46 200.69 67.33 201.76 66.48 202.4 65.62 203.26 64.98 205.82 65.41 208.38 65.63 209.44 65.41 210.09 64.77 210.3 64.34 210.51 63.06 210.26 61.14 210 59.86 210 58.37 210.47 57.3 211.45 56.45 213.76 55.38 214.59 54.1 215.01 53.24 214.79 51.54 213.08 50.9 213.29 50.26 213.71 49.62 214.36 48.97 214.57 47.91 215.21 47.05 217.25 46.2 218 45.56 218 41.29 216.82 39.37 216.55 38.09 216.73 36.17 218.61 35.31 219 33.39 219 32.54 219.67 31.05 221.39 30.83 222.89 30.19 225.03 26.78 226.74 25.49 227.38 24.43 225.24 23.36 224.81 22.93 225.03 22.08 225.88 22.36 228.02 22 229.51 22 231.01 21.08 232.5 19.98 232.07 18.47 230.79 18.25 229.5 16.53 228 14.82 228 14.18 229.29 14.16 230.47 15 232.5 15 233.78 13.95 235.49 17.91 241.68 18.61 243.17 19.7 244.46 21 245.09 22.93 246.59 24.42 248.08 26.13 250.43 26.99 252.14 29.76 255.13 31.47 257.9 34.89 266.66 35.96 269.43 37.02 271.56 40.44 280.1 42.57 285.01 46.84 295.47 47.7 298.45 48.75 301 383.96 301 385.59 299.3 386.66 298.99 387.52 299.58 388.8 300.62 389.86 300.49 390.72 296.31"/><path id="path1873" class="cls-2" d="M234.46,179.51c-1.65,0-3.27,1.87-3.27,1.87l0.14,19.56-6.18,6.47h5l0,11.22-29.57,39.82-4.37-1.51-7.64,16.3s18.9,11.83,46.33,11.51c30.11-.36,46.47-12.06,46.47-12.06l-7.9-16.09-3.87,1.68-30-39.62,0-11.55h5l-6.8-6.39,0-19.49S236.11,179.48,234.46,179.51Z"/><path id="path2760" class="cls-3" d="M244.77,226.34H224.32s-7.42-15.64-6.22-26.57c1.23-11.13,7.59-16.4,16-16.49,10-.11,15.24,4.9,16.83,16S244.77,226.34,244.77,226.34Z"/><path id="path3649" class="cls-1" d="M198.71,263.62c-0.33.45-2.79,5.35-2.79,5.35l4.23-.89Z"/><path id="path3651" class="cls-1" d="M201.16,270l-4.46,1.45,5.35,2.12Z"/><path id="path3653" class="cls-1" d="M203.17,263.73l2.23,6.57,5.46-1.56-1.45-3.12Z"/><path id="path3655" class="cls-1" d="M206.62,272.65l0.78,2.67,7.24,1.78-2.9-6.13Z"/><path id="path3657" class="cls-1" d="M214.64,267.08l2.56,6.13,5.46-2.12-1.78-2.67Z"/><path id="path3659" class="cls-1" d="M218.21,275.43l0.89,2.34,8.47,1.23L224,273.43Z"/><path id="path3661" class="cls-1" d="M226.34,268.86l3.12,5.46,7.91-2.9-0.89-2.12Z"/><path id="path3663" class="cls-1" d="M230.91,276.33l1.67,2.9,9.81-.33-3.68-5.46Z"/><path id="path3665" class="cls-1" d="M241.28,269.08l2.67,4.57,6.24-3-1.67-2.45Z"/><path id="path3667" class="cls-1" d="M251.53,272.54l-6.24,3.12,1.67,2.67,8.36-1.34Z"/><path id="path3669" class="cls-1" d="M253.53,267.75l3.23,4,5.24-4.12-1.78-1.89Z"/><path id="path3671" class="cls-1" d="M263.12,269.86l-5,3.79,1.34,2.34,6.91-1.78Z"/><path id="path3673" class="cls-1" d="M270,262l1.23,1.78-3.45,5.13-3.57-4.57Z"/><path id="path3675" class="cls-1" d="M272.36,266.41l2.12,4.23-4.23,1.45-0.33-2Z"/><polygon class="cls-4" points="98.71 160.78 98.28 160.99 93.16 160.78 91.88 161.42 91.45 162.27 91.67 162.91 92.73 163.98 94.01 165.04 94.65 165.69 94.44 166.33 93.8 166.97 91.67 167.82 90.81 168.25 90.39 168.68 89.53 169.53 89.11 171.45 88.68 177 88.25 177.64 86.33 177.21 84.84 176.57 83.13 177.43 86.12 181.91 86.54 183.83 86.12 185.32 85.05 185.75 82.92 186.18 82.06 186.82 79.29 191.73 77.58 194.08 75.44 195.57 75.02 196.43 75.23 197.92 75.23 199.84 73.52 201.12 72.03 200.91 71.81 200.69 70.96 200.48 69.47 200.69 67.33 201.76 66.48 202.4 65.63 203.26 64.98 205.82 65.41 208.38 65.63 209.44 65.41 210.09 64.77 210.3 64.34 210.51 63.06 210.09 61.14 209.66 59.86 209.66 58.37 210.3 57.3 211.37 56.45 213.71 55.38 214.57 54.1 215 53.24 214.78 51.54 213.07 50.9 213.29 50.26 213.71 49.62 214.36 48.97 214.57 47.91 215.21 47.05 217.13 46.2 217.77 45.56 217.77 41.29 216.7 39.37 216.49 38.09 216.7 36.17 218.63 35.31 219.05 33.39 219.05 32.54 219.69 31.05 221.4 30.83 222.89 30.19 225.03 26.78 226.74 25.49 227.38 24.43 225.24 23.36 224.81 22.93 225.03 22.08 225.88 22.29 228.02 21.87 229.51 21.87 231.01 21.01 232.5 19.95 232.07 18.45 230.79 18.24 229.72 16.53 228.44 14.82 228.44 14.18 229.51 14.39 230.58 15.46 232.5 15.46 233.78 14.18 235.49 18.02 241.68 18.66 243.17 19.73 244.46 21.01 245.09 22.93 246.59 24.43 248.08 26.14 250.43 26.99 252.14 29.76 255.13 31.47 257.9 34.89 266.66 35.96 269.43 37.02 271.56 40.44 280.1 42.57 285.01 46.84 295.47 47.7 298.25 48.12 299.2 385.48 299.2 385.59 299.1 386.66 298.89 387.08 299.2 390.1 299.2 390.72 296.11 392.21 294.62 395.84 294.62 397.98 294.19 399.04 293.34 399.68 292.7 400.54 290.35 400.11 288 398.83 284.8 397.33 279.89 396.7 279.25 394.77 278.61 393.28 277.54 392.85 276.47 392.64 275.19 393.28 272.42 395.41 267.94 396.06 264.74 396.27 258.97 397.55 256.62 397.55 255.76 396.91 254.7 395.84 251.71 396.48 250 398.4 247.66 400.54 246.37 401.39 245.52 401.39 241.68 401.6 240.61 402.46 238.9 403.95 238.26 407.37 237.84 409.93 235.06 412.27 234.42 412.92 233.57 417.19 232.5 419.96 232.07 420.6 232.29 421.24 232.29 422.74 231.86 423.59 230.58 423.8 226.74 422.74 223.96 423.38 223.11 424.23 222.89 427.65 222.68 428.71 222.04 429.35 221.4 429.14 220.55 428.5 219.91 427 219.26 424.66 217.99 424.45 216.7 424.45 214.57 425.94 210.73 425.3 208.17 424.66 203.68 424.87 202.83 426.37 201.55 427.65 201.76 429.99 200.69 431.27 197.71 432.55 196 434.69 194.93 439.39 193.44 441.95 193.22 443.23 192.37 446 191.51 447.07 190.87 448.56 186.82 450.49 184.25 451.34 181.05 451.13 180.63 451.13 177.85 451.55 177 454.12 174.65 453.9 173.58 453.05 170.81 451.34 168.89 449.85 168.68 449.2 165.9 450.49 162.48 450.49 161.21 450.2 160.64 98.76 160.64 98.71 160.78"/><polygon class="cls-4" points="310.46 13.27 307.68 12.63 306.03 13.32 310.54 13.32 310.46 13.27"/><polygon class="cls-4" points="386.66 298.89 385.59 299.1 385.48 299.2 387.08 299.2 386.66 298.89"/><polygon class="cls-5" points="387.52 299.53 388.8 300.59 389.86 300.38 390.1 299.2 387.08 299.2 387.52 299.53"/><polygon class="cls-5" points="49.4 303.16 51.96 308.28 52.18 308.49 52.6 309.35 54.1 310.41 55.17 310.84 63.06 319.17 66.05 322.15 67.55 329.2 69.25 335.6 70.11 339.02 70.53 339.45 76.08 338.59 82.27 337.1 83.13 337.31 84.19 338.38 84.62 339.02 84.62 339.87 83.77 341.79 83.56 343.29 82.7 344.14 81.42 344.14 80.99 344.99 81.85 346.92 81.63 347.34 79.93 347.77 78 349.48 77.36 353.53 77.15 357.8 77.15 361.86 77.36 363.78 80.78 365.49 81.42 366.13 81.42 367.19 80.14 368.9 83.13 370.61 83.34 371.68 81.42 373.38 81.21 373.6 80.78 374.88 81.21 376.16 82.49 376.37 83.98 376.37 87.61 373.81 88.68 373.6 89.75 373.6 92.09 372.75 93.37 372.1 95.51 372.1 96.36 372.75 97 374.03 96.58 376.59 96.79 378.3 97.64 379.36 100.2 382.14 100.42 382.99 101.48 384.7 102.55 385.55 107.67 385.77 109.17 386.19 110.67 387.26 112.8 390.46 113.44 392.81 113.87 394.52 115.79 399.21 116.85 399.64 118.56 399.64 120.27 400.5 120.91 401.99 121.98 403.7 121.98 404.55 121.34 406.26 121.77 407.32 122.19 407.54 122.41 407.97 123.9 409.46 126.46 411.38 131.15 413.73 133.5 414.8 135.85 417.36 136.92 420.35 137.99 421.84 140.34 423.76 141.62 425.69 142.04 427.18 143.54 429.1 145.03 430.17 147.81 431.23 151.01 431.88 153.35 432.09 156.34 432.51 159.54 433.15 165.95 433.58 167.23 433.15 168.94 431.66 170.43 430.81 171.5 430.81 174.06 433.15 174.49 434.22 175.55 438.06 176.62 439.77 179.4 440.63 179.82 440.63 182.38 440.84 185.16 441.69 190.07 442.76 192.85 442.76 196.26 442.97 198.39 443.61 202.24 442.33 204.59 441.27 205.65 441.48 205.86 441.48 207.36 442.12 209.28 444.68 210.77 445.32 210.99 444.04 210.13 440.84 210.13 440.63 210.13 438.7 209.49 435.08 210.13 431.88 210.35 431.02 212.27 428.24 214.19 426.96 215.26 426.75 217.6 424.4 218.67 422.69 219.31 419.71 219.95 413.94 220.81 411.81 222.94 409.25 222.73 407.97 222.3 407.54 218.03 403.48 217.18 402.2 218.03 400.92 220.59 399.43 222.3 398.57 225.07 395.37 229.99 393.88 232.54 392.17 236.39 388.54 238.1 386.19 239.59 381.92 239.59 380.64 238.1 379.57 237.03 377.87 237.03 377.44 237.24 376.16 236.6 374.45 233.61 371.46 230.2 369.33 229.13 368.26 229.34 366.77 230.63 364.85 233.19 361.86 235.54 361 236.39 360.79 237.67 360.15 241.09 359.72 244.71 359.94 246.21 359.51 247.7 356.73 248.34 355.45 252.18 352.04 254.32 349.26 256.24 341.79 258.38 339.87 260.93 337.52 263.5 336.46 264.35 336.46 271.82 339.45 274.17 339.66 275.88 339.45 279.72 337.52 281.43 337.95 282.92 337.1 283.99 336.25 284.63 335.18 287.4 333.04 289.11 331.76 292.1 332.19 295.09 333.25 297.44 334.75 301.71 335.6 304.05 334.75 306.19 334.96 309.18 336.03 312.17 335.82 314.09 334.75 316.44 333.89 318.14 333.04 320.28 332.4 321.77 331.33 323.69 330.27 326.25 329.84 328.6 330.69 330.74 330.69 332.66 330.05 335 328.13 341.62 327.06 344.82 325.36 345.04 324.93 347.39 323.01 349.09 322.58 351.87 321.51 353.15 320.45 357.85 317.03 360.83 315.32 368.52 311.06 369.16 310.2 373 308.06 373.64 307.64 374.5 307.21 377.91 305.5 380.69 303.58 385.48 299.2 48.12 299.2 49.62 302.52 49.4 303.16"/><polygon class="cls-6" points="448.78 158 445.79 155.01 444.08 152.88 443.01 149.68 441.09 142.42 439.6 139.86 438.96 139.22 437.89 138.15 437.25 137.72 437.04 137.08 436.82 136.44 436.4 136.02 436.19 135.59 435.33 134.95 434.26 134.31 433.62 134.09 433.41 133.88 432.13 131.53 432.98 127.48 432.98 124.06 431.92 121.5 430.85 120.22 428.93 119.15 425.94 118.08 424.87 118.3 423.17 117.66 421.03 118.3 418.9 120.22 417.61 120 416.76 119.36 413.34 115.09 411.64 113.39 410.78 111.04 411 109.12 410.35 107.84 407.58 106.13 402.46 104.42 400.32 103.78 397.98 100.79 395.63 99.3 393.28 98.44 389.44 97.8 387.3 96.95 386.02 95.88 384.96 95.67 383.67 93.75 383.67 92.47 384.31 90.55 384.31 89.27 383.67 87.98 375.56 82.65 373.85 82.44 371.29 83.72 370.44 83.5 369.37 82.44 368.73 80.94 366.38 78.81 365.1 77.53 363.61 75.82 362.54 70.91 360.83 68.13 359.13 66 356.35 60.88 355.29 58.95 351.44 56.18 347.6 52.12 346.75 51.48 346.53 51.27 344.61 51.06 339.49 51.27 337.99 49.56 336.93 46.58 337.35 44.23 336.71 42.09 336.5 40.81 335.43 39.74 332.66 38.46 331.38 38.25 327.96 36.54 325.4 36.33 323.48 36.76 321.34 36.11 319.64 34.62 318.78 32.49 317.29 23.52 316.86 20.53 316.01 18.61 314.3 16.26 312.38 14.34 310.54 13.32 306.03 13.32 305.12 13.7 302.77 14.98 300.85 17.33 299.78 17.97 298.93 17.76 298.29 17.54 296.58 18.18 295.51 19.04 295.09 19.04 293.81 19.25 292.31 19.04 290.6 18.4 288.69 18.82 287.62 19.04 286.55 18.82 285.27 18.18 284.42 18.4 282.71 19.89 281.43 20.1 280.79 19.68 280.57 19.04 279.3 19.25 278.01 19.68 276.52 19.25 275.45 19.04 273.74 19.25 271.39 20.53 267.77 21.39 266.27 22.24 263.92 22.24 262.86 23.31 261.58 26.72 259.65 28.64 257.09 30.57 256.45 32.06 256.24 33.55 256.24 35.26 255.38 36.33 256.67 37.18 256.03 38.04 254.75 38.68 253.89 38.68 252.4 38.04 250.69 38.04 248.98 38.89 246.42 38.46 245.14 39.1 243.65 39.53 242.15 40.6 240.02 40.38 236.6 39.1 236.17 38.46 235.54 37.82 233.61 37.82 231.91 38.25 230.2 39.1 228.49 39.74 226.57 40.17 225.5 39.96 224.86 39.32 224.01 36.97 223.16 37.18 221.45 39.1 219.95 39.53 218.24 42.31 217.39 42.73 216.75 42.95 215.9 43.8 214.83 45.51 213.12 47.21 212.27 47.43 211.84 47.43 211.63 47.21 210.77 48.07 210.56 49.35 210.13 51.06 209.49 51.7 208.43 52.12 207.57 53.41 206.08 56.82 205.01 57.46 204.59 58.31 203.73 61.3 203.09 61.73 200.53 62.16 199.67 62.58 199.25 63.44 199.67 64.08 199.67 64.93 199.89 66.21 199.67 67.49 199.25 68.78 194.98 71.76 195.19 73.04 196.05 74.75 195.41 75.61 193.27 75.61 190.28 74.75 188.57 74.97 185.37 76.03 184.09 74.54 183.03 71.55 180.89 70.48 178.12 70.48 176.62 71.76 174.49 73.9 173.63 76.25 172.35 76.89 170.65 76.89 170.65 78.38 171.71 80.3 171.71 80.51 171.5 81.58 171.07 82.01 170 82.86 168.94 83.5 167.44 83.72 166.16 83.5 165.09 82.86 162.96 80.73 161.89 80.73 161.04 80.94 159.97 80.73 158.91 80.51 158.26 81.37 157.62 82.44 157.19 83.29 156.34 83.93 153.99 83.93 152.07 82.44 151.01 81.8 148.66 81.16 146.1 79.45 145.24 79.66 144.6 80.09 144.6 80.94 145.88 81.58 147.16 82.86 147.81 84.36 147.59 85 146.31 86.49 146.1 88.63 145.67 89.05 144.6 88.84 142.89 88.63 142.04 89.05 141.19 89.69 140.34 90.76 139.69 92.04 139.69 92.9 140.12 96.1 139.05 96.95 137.99 97.59 137.77 99.09 139.48 100.58 139.91 101.22 139.05 102.5 136.71 102.5 135 101.65 133.08 101.65 132.22 102.29 134.15 104.85 133.72 105.7 131.79 106.13 131.37 106.98 131.58 108.27 131.58 109.33 130.94 110.19 129.02 110.19 127.31 109.54 126.03 109.76 125.39 110.4 125.39 111.47 126.25 112.11 129.45 112.96 130.94 114.45 131.37 116.59 130.73 117.44 130.51 117.66 130.09 117.66 129.88 117.66 129.66 117.66 129.45 117.66 128.81 117.44 128.17 117.44 126.25 116.8 125.39 116.8 124.97 117.23 125.18 117.87 125.82 118.08 126.67 117.87 127.53 118.3 127.74 119.15 127.74 121.28 127.1 123.63 125.61 124.06 124.75 124.06 124.32 124.92 124.11 126.19 122.62 127.48 121.55 127.9 120.06 127.9 119.42 128.12 120.48 131.32 120.7 132.81 120.06 134.09 118.77 134.95 117.5 135.38 117.07 135.38 114.93 135.38 113.01 137.72 109.38 140.71 108.1 141.99 106.82 143.7 104.26 145.62 103.83 146.05 103.83 147.33 104.26 149.03 104.9 149.68 106.61 150.32 107.25 150.96 107.67 152.24 106.82 153.73 104.26 156.29 102.98 157.57 99.99 158.43 99.35 158.85 98.76 160.64 450.2 160.64 449.85 159.92 448.78 158"/><g id="intl_boundary" data-name="intl boundary"><polyline class="cls-7" points="81.42 373.38 81.21 373.6 80.78 374.88 81.21 376.16 82.49 376.37 83.98 376.37 87.61 373.81 88.68 373.6 89.75 373.6 92.09 372.75 93.37 372.1 95.51 372.1 96.36 372.75 97 374.03 96.58 376.59 96.79 378.3 97.64 379.36 100.2 382.14 100.42 382.99 101.48 384.7 102.55 385.55 107.67 385.77 109.17 386.19 110.67 387.26 112.8 390.46 113.44 392.81 113.87 394.52 115.79 399.21 116.85 399.64 118.56 399.64 120.27 400.5 120.91 401.99 121.98 403.7 121.98 404.55 121.34 406.26 121.77 407.32 122.19 407.54 122.41 407.97 123.9 409.46 126.46 411.38 131.15 413.73 133.5 414.8 135.85 417.36 136.92 420.35 137.99 421.84 140.34 423.76 141.62 425.69 142.04 427.18 143.54 429.1 145.03 430.17 147.81 431.23 151.01 431.88 153.35 432.09 156.34 432.51 159.54 433.15 165.95 433.58 167.23 433.15 168.94 431.66 170.43 430.81 171.5 430.81 174.06 433.15 174.49 434.22 175.55 438.06 176.62 439.77 179.4 440.63 179.82 440.63 182.38 440.84 185.16 441.69 190.07 442.76 192.85 442.76 196.26 442.97 198.39 443.61 202.24 442.33 204.59 441.27 205.65 441.48 205.86 441.48 207.36 442.12 209.28 444.68 210.77 445.32 210.99 444.04 210.13 440.84 210.13 440.63 210.13 438.7 209.49 435.08 210.13 431.88 210.35 431.02 212.27 428.24 214.19 426.96 215.26 426.75 217.6 424.4 218.67 422.69 219.31 419.71 219.95 413.94 220.81 411.81 222.94 409.25 222.73 407.97 222.3 407.54 218.03 403.48 217.18 402.2 218.03 400.92 220.59 399.43 222.3 398.57 225.07 395.37 229.99 393.88 232.54 392.17 236.39 388.54 238.1 386.19 239.59 381.92 239.59 380.64 238.1 379.57 237.03 377.87 237.03 377.44 237.24 376.16 236.6 374.45 233.61 371.46 230.2 369.33 229.13 368.26 229.34 366.77 230.63 364.85 233.19 361.86 235.54 361 236.39 360.79 237.67 360.15 241.09 359.72 244.71 359.94 246.21 359.51 247.7 356.73 248.34 355.45 252.18 352.04 254.32 349.26 256.24 341.79 258.38 339.87 260.93 337.52 263.5 336.46 264.35 336.46 271.82 339.45 274.17 339.66 275.88 339.45 279.72 337.52 281.43 337.95 282.92 337.1 283.99 336.25 284.63 335.18 287.4 333.04 289.11 331.76 292.1 332.19 295.09 333.25 297.44 334.75 301.71 335.6 304.05 334.75 306.19 334.96 309.18 336.03 312.17 335.82 314.09 334.75 316.44 333.89 318.14 333.04 320.28 332.4 321.77 331.33 323.69 330.27 326.25 329.84 328.6 330.69 330.74 330.69 332.66 330.05 335 328.13 341.62 327.06 344.82 325.36 345.04 324.93 347.39 323.01 349.09 322.58 351.87 321.51 353.15 320.45 357.85 317.03 360.83 315.32 368.52 311.06 369.16 310.2 373 308.06 373.64 307.64 374.5 307.21 377.91 305.5 380.69 303.58 385.59 299.1 386.66 298.89 387.52 299.53 388.8 300.59 389.86 300.38 390.72 296.11 392.21 294.62 395.84 294.62 397.98 294.19 399.04 293.34 399.68 292.7 400.54 290.35 400.11 288 398.83 284.8 397.33 279.89 396.7 279.25 394.77 278.61 393.28 277.54 392.85 276.47 392.64 275.19 393.28 272.42 395.41 267.94 396.06 264.74 396.27 258.97 397.55 256.62 397.55 255.76 396.91 254.7 395.84 251.71 396.48 250 398.4 247.66 400.54 246.37 401.39 245.52 401.39 241.68 401.6 240.61 402.46 238.9 403.95 238.26 407.37 237.84 409.93 235.06 412.27 234.42 412.92 233.57 417.19 232.5 419.96 232.07 420.6 232.29 421.24 232.29 422.74 231.86 423.59 230.58 423.8 226.74 422.74 223.96 423.38 223.11 424.23 222.89 427.65 222.68 428.71 222.04 429.35 221.4 429.14 220.55 428.5 219.91 427 219.26 424.66 217.99 424.45 216.7 424.45 214.57 425.94 210.73 425.3 208.17 424.66 203.68 424.87 202.83 426.37 201.55 427.65 201.76 429.99 200.69 431.27 197.71 432.55 196 434.69 194.93 439.39 193.44 441.95 193.22 443.23 192.37 446 191.51 447.07 190.87 448.56 186.82 450.49 184.25 451.34 181.05 451.13 180.63 451.13 177.85 451.55 177 454.12 174.65 453.9 173.58 453.05 170.81 451.34 168.89 449.85 168.68 449.2 165.9 450.49 162.48 450.49 161.21 449.85 159.92 448.78 158 445.79 155.01 444.08 152.88 443.01 149.68 441.09 142.42 439.6 139.86 438.96 139.22 437.89 138.15 437.25 137.72 437.04 137.08 436.82 136.44 436.4 136.02 436.19 135.59 435.33 134.95 434.26 134.31 433.62 134.09 433.41 133.88 432.13 131.53 432.98 127.48 432.98 124.06 431.92 121.5 430.85 120.22 428.93 119.15 425.94 118.08 424.87 118.3 423.17 117.66 421.03 118.3 418.9 120.22 417.61 120 416.76 119.36 413.34 115.09 411.64 113.39 410.78 111.04 411 109.12 410.35 107.84 407.58 106.13 402.46 104.42 400.32 103.78 397.98 100.79 395.63 99.3 393.28 98.44 389.44 97.8 387.3 96.95 386.02 95.88 384.96 95.67 383.67 93.75 383.67 92.47 384.31 90.55 384.31 89.27 383.67 87.98 375.56 82.65 373.85 82.44 371.29 83.72 370.44 83.5 369.37 82.44 368.73 80.94 366.38 78.81 365.1 77.53 363.61 75.82 362.54 70.91 360.83 68.13 359.13 66 356.35 60.88 355.29 58.95 351.44 56.18 347.6 52.12 346.75 51.48 346.53 51.27 344.61 51.06 339.49 51.27 337.99 49.56 336.93 46.58 337.35 44.23 336.71 42.09 336.5 40.81 335.43 39.74 332.66 38.46 331.38 38.25 327.96 36.54 325.4 36.33 323.48 36.76 321.34 36.12 319.64 34.62 318.78 32.49 317.29 23.52 316.86 20.53 316.01 18.61 314.3 16.26 312.38 14.34 310.46 13.27 307.68 12.63 305.12 13.7 302.77 14.98 300.85 17.33 299.78 17.97 298.93 17.76 298.29 17.54 296.58 18.18 295.51 19.04 295.09 19.04 293.81 19.25 292.31 19.04 290.6 18.4 288.69 18.82 287.62 19.04 286.55 18.82 285.27 18.18 284.42 18.4 282.71 19.89 281.43 20.1 280.79 19.68 280.57 19.04 279.3 19.25 278.01 19.68 276.52 19.25 275.45 19.04 273.74 19.25 271.39 20.53 267.77 21.39 266.27 22.24 263.92 22.24 262.86 23.31 261.58 26.72 259.65 28.64 257.09 30.57 256.45 32.06 256.24 33.55 256.24 35.26 255.38 36.33 256.67 37.18 256.03 38.04 254.75 38.68 253.89 38.68 252.4 38.04 250.69 38.04 248.98 38.89 246.42 38.46 245.14 39.1 243.65 39.53 242.15 40.6 240.02 40.38 236.6 39.1 236.17 38.46 235.54 37.82 233.61 37.82 231.91 38.25 230.2 39.1 228.49 39.74 226.57 40.17 225.5 39.96 224.86 39.32 224.01 36.97 223.16 37.18 221.45 39.1 219.95 39.53 218.24 42.31 217.39 42.73 216.75 42.95 215.9 43.8 214.83 45.51 213.12 47.21 212.27 47.43 211.84 47.43 211.63 47.21 210.77 48.07 210.56 49.35 210.13 51.06 209.49 51.7 208.43 52.12 207.57 53.41 206.08 56.82 205.01 57.46 204.59 58.31 203.73 61.3 203.09 61.73 200.53 62.16 199.67 62.58 199.25 63.44 199.67 64.08 199.67 64.93 199.89 66.21 199.67 67.49 199.25 68.78 194.98 71.76 195.19 73.04 196.05 74.75 195.41 75.61 193.27 75.61 190.28 74.75 188.57 74.97 185.37 76.03 184.09 74.54 183.03 71.55 180.89 70.48 178.12 70.48 176.62 71.76 174.49 73.9 173.63 76.25 172.35 76.89 170.65 76.89 170.65 78.38 171.71 80.3 171.71 80.51 171.5 81.58 171.07 82.01 170 82.86 168.94 83.5 167.44 83.72 166.16 83.5 165.09 82.86 162.96 80.73 161.89 80.73 161.04 80.94 159.97 80.73 158.91 80.51 158.26 81.37 157.62 82.44 157.19 83.29 156.34 83.93 153.99 83.93 152.07 82.44 151.01 81.8 148.66 81.16 146.1 79.45 145.24 79.66 144.6 80.09 144.6 80.94 145.88 81.58 147.16 82.86 147.81 84.36 147.59 85 146.31 86.49 146.1 88.63 145.67 89.05 144.6 88.84 142.89 88.63 142.04 89.05 141.19 89.69 140.34 90.76 139.69 92.04 139.69 92.9 140.12 96.1 139.05 96.95 137.99 97.59 137.77 99.09 139.48 100.58 139.91 101.22 139.05 102.5 136.71 102.5 135 101.65 133.08 101.65 132.22 102.29 134.15 104.85 133.72 105.7 131.79 106.13 131.37 106.98 131.58 108.27 131.58 109.33 130.94 110.19 129.02 110.19 127.31 109.54 126.03 109.76 125.39 110.4 125.39 111.47 126.25 112.11 129.45 112.96 130.94 114.45 131.37 116.59 130.73 117.44 130.51 117.66 130.09 117.66 129.88 117.66 129.66 117.66 129.45 117.66 128.81 117.44 128.17 117.44 126.25 116.8 125.39 116.8 124.97 117.23 125.18 117.87 125.82 118.08 126.67 117.87 127.53 118.3 127.74 119.15 127.74 121.28 127.1 123.63 125.61 124.06 124.75 124.06 124.32 124.92 124.11 126.19 122.62 127.48 121.55 127.9 120.06 127.9 119.42 128.12 120.48 131.32 120.7 132.81 120.06 134.09 118.77 134.95 117.5 135.38 117.07 135.38 114.93 135.38 113.01 137.72 109.38 140.71 108.1 141.99 106.82 143.7 104.26 145.62 103.83 146.05 103.83 147.33 104.26 149.03 104.9 149.68 106.61 150.32 107.25 150.96 107.67 152.24 106.82 153.73 104.26 156.29 102.98 157.57 99.99 158.43 99.35 158.85 98.71 160.78 98.28 160.99 93.16 160.78 91.88 161.42 91.45 162.27 91.67 162.91 92.73 163.98 94.01 165.04 94.65 165.69 94.44 166.33 93.8 166.97 91.67 167.82 90.81 168.25 90.39 168.68 89.53 169.53 89.11 171.45 88.68 177 88.25 177.64 86.33 177.21 84.84 176.57 83.13 177.43 86.12 181.91 86.54 183.83 86.12 185.32 85.05 185.75 82.92 186.18 82.06 186.82 79.29 191.73 77.58 194.08 75.44 195.57 75.02 196.43 75.23 197.92 75.23 199.84 73.52 201.12 72.03 200.91 71.81 200.69 70.96 200.48 69.47 200.69 67.33 201.76 66.48 202.4 65.63 203.26 64.98 205.82 65.41 208.38 65.63 209.44 65.41 210.09 64.77 210.3 64.34 210.51 63.06 210.09 61.14 209.66 59.86 209.66 58.37 210.3 57.3 211.37 56.45 213.71 55.38 214.57 54.1 215 53.24 214.78 51.54 213.07 50.9 213.29 50.26 213.71 49.62 214.36 48.97 214.57 47.91 215.21 47.05 217.13 46.2 217.77 45.56 217.77 41.29 216.7 39.37 216.49 38.09 216.7 36.17 218.63 35.31 219.05 33.39 219.05 32.54 219.69 31.05 221.4 30.83 222.89 30.19 225.03 26.78 226.74 25.49 227.38 24.43 225.24 23.36 224.81 22.93 225.03 22.08 225.88 22.29 228.02 21.87 229.51 21.87 231.01 21.01 232.5 19.95 232.07 18.45 230.79 18.24 229.72 16.53 228.44 14.82 228.44 14.18 229.51 14.39 230.58 15.46 232.5 15.46 233.78 14.18 235.49 18.02 241.68 18.66 243.17 19.73 244.46 21.01 245.09 22.93 246.59 24.43 248.08 26.14 250.43 26.99 252.14 29.76 255.13 31.47 257.9 34.89 266.66 35.96 269.43 37.02 271.56 40.44 280.1 42.57 285.01 46.84 295.47 47.7 298.25 49.62 302.52 49.4 303.16 51.96 308.28 52.18 308.49 52.6 309.35 54.1 310.41 55.17 310.84 63.06 319.17 66.05 322.15 67.55 329.2 69.25 335.6 70.11 339.02 70.53 339.45 76.08 338.59 82.27 337.1 83.13 337.31 84.19 338.38 84.62 339.02 84.62 339.87 83.77 341.79 83.56 343.29 82.7 344.14 81.42 344.14 80.99 344.99 81.85 346.92 81.63 347.34 79.93 347.77 78 349.48 77.36 353.53 77.15 357.8 77.15 361.86 77.36 363.78 80.78 365.49 81.42 366.13 81.42 367.19 80.14 368.9 83.13 370.61 83.34 371.68 81.42 373.38"/></g><text class="cls-8" transform="translate(218.65 95.86)">Map<tspan x="0" y="42">Les</tspan><tspan x="71.52" y="42">o</tspan><tspan class="cls-9" x="102.47" y="42">t</tspan><tspan x="117.44" y="42">ho</tspan></text><text class="cls-10" transform="translate(540 288.18)">#MapLes<tspan class="cls-9" x="836.04" y="0">o</tspan><tspan class="cls-11" x="957.42" y="0">t</tspan><tspan x="1016.11" y="0">ho</tspan></text></svg>