<svg id="Layer_1" data-name="Layer 1" xmlns="http://www.w3.org/2000/svg" viewBox="0 0 1772.81 434.69"><defs><style>.cls-1,.cls-8{fill:#fff;}.cls-2,.cls-3{stroke:#000;}.cls-2{stroke-width:0.88px;}.cls-3,.cls-4,.cls-7{fill:none;}.cls-3{stroke-width:4.4px;}.cls-5{fill:#009448;}.cls-6{fill:#28388f;}.cls-7{stroke:#6d6e70;stroke-linecap:round;stroke-linejoin:round;stroke-width:2px;}.cls-8{font-size:51px;}.cls-10,.cls-8{font-family:Futura;}.cls-9{letter-spacing:1px;}.cls-10{font-size:200px;fill:#435a63;}.cls-11{letter-spacing:4px;}</style></defs><title>maplesotho-logo-pos</title><polygon class="cls-1" points="377.54 284.67 379.03 283.37 382.66 283.37 384.79 282.75 385.86 281.8 386.5 281.11 387.35 278.74 386.93 276.38 385.65 273.17 384.15 268.26 383.51 267.62 381.59 266.98 380.09 265.91 379.67 264.84 379.46 263.56 380.09 260.78 382.23 256.3 382.87 253.1 383.31 247.33 384.82 244.99 384.82 244.13 383.95 243.06 382.77 240.08 383.35 238.37 385.25 236.02 387.17 234.74 387.82 233.89 387.82 230.05 388.22 228.98 389.18 227.27 390.72 226.63 394.16 226.2 396.73 223.43 399.08 222.79 399.73 221.93 404 220.87 406.78 220.3 407.42 220.37 408.06 220.37 409.55 220.08 410.41 218.87 410.62 215.07 409.55 212.31 410.19 211.47 411.05 211.26 414.46 211.05 415.53 210.41 416.17 209.77 415.96 208.91 415.32 208.27 413.82 207.63 411.25 206.35 410.82 205.07 410.82 202.94 412.53 199.09 412 196.53 411.42 192.05 411.66 191.2 413.17 189.91 414.46 190.13 416.81 189.06 418.09 186.07 419.37 184.36 421.5 183.3 426.2 181.8 428.76 181.59 430.04 180.74 432.82 179.88 433.89 179.24 435.38 175.19 437.3 172.62 438.09 169.42 437.82 169 437.82 166.22 438.31 165.37 440.9 163.02 440.7 161.95 439.86 159.18 438.15 157.25 436.66 157.04 435.78 154.27 436.82 150.85 436.82 149.57 437.02 149.37 85.57 149.37 85.53 149.32 85.1 149.45 79.98 149.19 78.7 149.81 78.27 150.65 78.48 151.28 79.55 152.35 80.83 153.41 81.47 154.05 81.26 154.69 80.62 155.34 78.48 156.19 77.63 156.61 77.2 157.04 76.35 157.89 75.92 159.82 75.49 165.37 75.07 166.01 73.15 165.58 71.65 164.94 69.94 165.79 72.93 170.28 73.36 172.2 72.93 173.69 71.87 174.12 69.73 174.55 68.88 175.19 66.1 180.09 64.39 182.44 62.26 183.94 61.72 184.79 61.82 186.28 61.82 188.21 60.22 189.49 58.79 189.27 58.6 189.06 57.76 188.85 56.28 189.06 54.15 190.13 53.29 190.77 52.44 191.62 51.8 194.18 52.23 196.75 52.44 197.81 52.23 198.45 51.59 198.67 51.16 198.88 49.88 198.62 47.96 198.37 46.68 198.37 45.18 198.84 44.12 199.82 43.26 202.12 42.19 202.96 40.91 203.37 40.06 203.15 38.35 201.44 37.71 201.66 37.07 202.08 36.43 202.72 35.79 202.94 34.72 203.58 33.87 205.61 33.02 206.37 32.38 206.37 28.11 205.19 26.18 204.91 24.91 205.1 22.98 206.98 22.13 207.37 20.21 207.37 19.36 208.03 17.86 209.76 17.65 211.25 17.01 213.39 13.59 215.1 12.31 215.74 11.24 213.61 10.18 213.18 9.75 213.4 8.9 214.25 9.18 216.38 8.82 217.88 8.82 219.37 7.9 220.87 6.8 220.44 5.29 219.16 5.06 217.87 3.35 216.37 1.64 216.37 1 217.66 0.98 218.84 1.82 220.87 1.82 222.15 0.77 223.85 4.72 230.05 5.42 231.54 6.52 232.82 7.82 233.46 9.74 234.96 11.24 236.45 12.95 238.8 13.81 240.51 16.58 243.5 18.29 246.27 21.7 255.02 22.77 257.8 23.84 259.93 27.25 268.47 29.39 273.38 33.66 283.84 34.51 286.82 35.57 289.37 370.78 289.37 372.41 287.67 373.48 287.36 374.33 287.94 375.61 288.99 376.68 288.86 377.54 284.67"/><path id="path1873" class="cls-2" d="M233.73,180.14c-1.65,0-3.27,1.87-3.27,1.87l0.14,19.56L224.43,208h5l0,11.22-29.57,39.82-4.37-1.51-7.64,16.3s18.9,11.83,46.33,11.51c30.11-.36,46.47-12.06,46.47-12.06l-7.9-16.09-3.87,1.68-30-39.62,0-11.55h5l-6.8-6.39,0-19.49S235.39,180.1,233.73,180.14Z" transform="translate(-12.46 -12.26)"/><path id="path2760" class="cls-3" d="M244,227H223.59s-7.42-15.64-6.22-26.57c1.23-11.13,7.59-16.4,16-16.49,10-.11,15.24,4.9,16.83,16S244,227,244,227Z" transform="translate(-12.46 -12.26)"/><path id="path3649" class="cls-1" d="M198,264.25c-0.33.45-2.79,5.35-2.79,5.35l4.23-.89Z" transform="translate(-12.46 -12.26)"/><path id="path3651" class="cls-1" d="M200.44,270.6L196,272l5.35,2.12Z" transform="translate(-12.46 -12.26)"/><path id="path3653" class="cls-1" d="M202.44,264.36l2.23,6.57,5.46-1.56-1.45-3.12Z" transform="translate(-12.46 -12.26)"/><path id="path3655" class="cls-1" d="M205.9,273.27l0.78,2.67,7.24,1.78L211,271.6Z" transform="translate(-12.46 -12.26)"/><path id="path3657" class="cls-1" d="M213.92,267.7l2.56,6.13,5.46-2.12L220.16,269Z" transform="translate(-12.46 -12.26)"/><path id="path3659" class="cls-1" d="M217.49,276.06l0.89,2.34,8.47,1.23-3.57-5.57Z" transform="translate(-12.46 -12.26)"/><path id="path3661" class="cls-1" d="M225.62,269.48l3.12,5.46,7.91-2.9-0.89-2.12Z" transform="translate(-12.46 -12.26)"/><path id="path3663" class="cls-1" d="M230.19,277l1.67,2.9,9.81-.33L238,274.05Z" transform="translate(-12.46 -12.26)"/><path id="path3665" class="cls-1" d="M240.55,269.71l2.67,4.57,6.24-3-1.67-2.45Z" transform="translate(-12.46 -12.26)"/><path id="path3667" class="cls-1" d="M250.8,273.16l-6.24,3.12,1.67,2.67,8.36-1.34Z" transform="translate(-12.46 -12.26)"/><path id="path3669" class="cls-1" d="M252.81,268.37l3.23,4,5.24-4.12-1.78-1.89Z" transform="translate(-12.46 -12.26)"/><path id="path3671" class="cls-1" d="M262.39,270.49l-5,3.79,1.34,2.34,6.91-1.78Z" transform="translate(-12.46 -12.26)"/><path id="path3673" class="cls-1" d="M269.3,262.58l1.23,1.78-3.45,5.13-3.57-4.57Z" transform="translate(-12.46 -12.26)"/><path id="path3675" class="cls-1" d="M271.64,267l2.12,4.23-4.23,1.45-0.33-2Z" transform="translate(-12.46 -12.26)"/><polygon class="cls-4" points="85.53 149.14 85.1 149.36 79.98 149.14 78.7 149.78 78.27 150.64 78.48 151.28 79.55 152.34 80.83 153.41 81.47 154.05 81.26 154.69 80.62 155.34 78.48 156.19 77.63 156.61 77.2 157.04 76.35 157.89 75.92 159.81 75.49 165.37 75.07 166.01 73.15 165.58 71.65 164.94 69.94 165.79 72.93 170.28 73.36 172.2 72.93 173.69 71.86 174.12 69.73 174.55 68.88 175.19 66.1 180.09 64.39 182.44 62.26 183.94 61.83 184.79 62.05 186.28 62.05 188.21 60.34 189.49 58.84 189.27 58.63 189.06 57.78 188.85 56.28 189.06 54.15 190.13 53.3 190.77 52.44 191.62 51.8 194.18 52.23 196.75 52.44 197.81 52.23 198.45 51.59 198.67 51.16 198.88 49.88 198.45 47.96 198.03 46.68 198.03 45.18 198.67 44.12 199.74 43.26 202.08 42.19 202.94 40.91 203.36 40.06 203.15 38.35 201.44 37.71 201.66 37.07 202.08 36.43 202.72 35.79 202.94 34.72 203.58 33.87 205.5 33.02 206.14 32.38 206.14 28.11 205.07 26.18 204.86 24.91 205.07 22.98 206.99 22.13 207.42 20.21 207.42 19.36 208.06 17.86 209.77 17.65 211.26 17.01 213.4 13.59 215.11 12.31 215.74 11.24 213.61 10.18 213.18 9.75 213.4 8.9 214.25 9.11 216.38 8.68 217.88 8.68 219.37 7.83 220.87 6.76 220.44 5.27 219.16 5.05 218.09 3.35 216.81 1.64 216.81 1 217.88 1.21 218.94 2.28 220.87 2.28 222.15 1 223.85 4.84 230.05 5.48 231.54 6.55 232.82 7.83 233.46 9.75 234.96 11.24 236.45 12.95 238.8 13.81 240.51 16.58 243.5 18.29 246.27 21.7 255.02 22.77 257.8 23.84 259.93 27.25 268.47 29.39 273.38 33.66 283.84 34.51 286.62 34.94 287.57 372.3 287.57 372.41 287.47 373.48 287.25 373.9 287.57 376.92 287.57 377.54 284.48 379.03 282.99 382.66 282.99 384.79 282.56 385.86 281.7 386.5 281.06 387.35 278.72 386.93 276.37 385.65 273.17 384.15 268.25 383.51 267.61 381.59 266.98 380.09 265.91 379.67 264.84 379.46 263.56 380.09 260.78 382.23 256.3 382.87 253.1 383.08 247.33 384.36 244.99 384.36 244.13 383.73 243.06 382.66 240.08 383.3 238.37 385.22 236.02 387.35 234.74 388.21 233.89 388.21 230.05 388.42 228.98 389.27 227.27 390.77 226.63 394.19 226.2 396.75 223.43 399.09 222.79 399.73 221.93 404 220.87 406.78 220.44 407.42 220.65 408.06 220.65 409.55 220.23 410.41 218.94 410.62 215.11 409.55 212.33 410.19 211.47 411.05 211.26 414.46 211.05 415.53 210.41 416.17 209.77 415.96 208.91 415.32 208.27 413.82 207.63 411.47 206.35 411.26 205.07 411.26 202.94 412.75 199.09 412.12 196.53 411.47 192.05 411.69 191.2 413.18 189.91 414.46 190.13 416.81 189.06 418.09 186.07 419.37 184.36 421.5 183.3 426.2 181.8 428.76 181.59 430.04 180.74 432.82 179.88 433.89 179.24 435.38 175.19 437.3 172.62 438.15 169.42 437.94 169 437.94 166.22 438.37 165.37 440.93 163.02 440.72 161.95 439.86 159.18 438.15 157.25 436.66 157.04 436.02 154.27 437.3 150.85 437.3 149.57 437.02 149 85.57 149 85.53 149.14"/><polygon class="cls-4" points="297.27 1.64 294.5 1 292.85 1.69 297.36 1.69 297.27 1.64"/><polygon class="cls-4" points="373.48 287.25 372.41 287.47 372.3 287.57 373.9 287.57 373.48 287.25"/><polygon class="cls-5" points="374.33 287.89 375.61 288.96 376.68 288.75 376.92 287.57 373.9 287.57 374.33 287.89"/><polygon class="cls-5" points="36.22 291.52 38.78 296.65 38.99 296.86 39.42 297.71 40.91 298.78 41.98 299.21 49.88 307.53 52.87 310.52 54.36 317.57 56.07 323.97 56.92 327.38 57.35 327.81 62.9 326.96 69.09 325.46 69.94 325.68 71.01 326.75 71.44 327.38 71.44 328.24 70.58 330.16 70.37 331.65 69.52 332.51 68.24 332.51 67.81 333.36 68.66 335.28 68.45 335.71 66.74 336.14 64.82 337.84 64.18 341.9 63.97 346.17 63.97 350.23 64.18 352.15 67.6 353.86 68.24 354.5 68.24 355.56 66.96 357.27 69.94 358.98 70.16 360.05 68.24 361.75 68.02 361.97 67.6 363.25 68.02 364.53 69.3 364.74 70.8 364.74 74.43 362.18 75.49 361.97 76.56 361.97 78.91 361.11 80.19 360.47 82.33 360.47 83.18 361.11 83.82 362.39 83.39 364.95 83.61 366.66 84.46 367.73 87.02 370.5 87.23 371.36 88.3 373.07 89.37 373.92 94.49 374.13 95.98 374.56 97.48 375.63 99.62 378.83 100.25 381.18 100.68 382.88 102.6 387.58 103.67 388.01 105.38 388.01 107.09 388.86 107.72 390.36 108.79 392.06 108.79 392.92 108.15 394.62 108.58 395.69 109.01 395.91 109.22 396.33 110.72 397.82 113.28 399.75 117.97 402.1 120.32 403.16 122.67 405.73 123.73 408.72 124.8 410.21 127.15 412.13 128.43 414.05 128.86 415.54 130.35 417.46 131.84 418.53 134.62 419.6 137.82 420.24 140.17 420.45 143.16 420.88 146.36 421.52 152.76 421.95 154.05 421.52 155.75 420.03 157.25 419.18 158.31 419.18 160.88 421.52 161.3 422.59 162.37 426.43 163.44 428.14 166.21 428.99 166.64 428.99 169.2 429.2 171.98 430.06 176.88 431.13 179.66 431.13 183.07 431.34 185.21 431.98 189.05 430.7 191.4 429.63 192.47 429.85 192.68 429.85 194.18 430.49 196.1 433.05 197.59 433.69 197.81 432.41 196.95 429.2 196.95 428.99 196.95 427.07 196.31 423.44 196.95 420.24 197.16 419.39 199.08 416.61 201.01 415.33 202.07 415.12 204.42 412.77 205.49 411.06 206.13 408.07 206.77 402.31 207.62 400.18 209.76 397.61 209.54 396.33 209.12 395.91 204.85 391.85 203.99 390.57 204.85 389.29 207.41 387.8 209.12 386.94 211.89 383.74 216.8 382.24 219.36 380.54 223.21 376.91 224.91 374.56 226.41 370.29 226.41 369.01 224.91 367.94 223.85 366.24 223.85 365.81 224.06 364.53 223.42 362.82 220.43 359.83 217.02 357.7 215.95 356.63 216.16 355.13 217.44 353.21 220 350.23 222.35 349.37 223.21 349.16 224.49 348.52 227.9 348.09 231.53 348.3 233.03 347.88 234.52 345.1 235.16 343.82 239 340.41 241.13 337.63 243.06 330.16 245.19 328.24 247.75 325.89 250.31 324.82 251.17 324.82 258.64 327.81 260.99 328.02 262.7 327.81 266.54 325.89 268.25 326.32 269.74 325.46 270.81 324.61 271.45 323.55 274.22 321.41 275.93 320.13 278.92 320.55 281.91 321.62 284.25 323.11 288.52 323.97 290.87 323.11 293 323.33 296 324.4 298.98 324.18 300.9 323.11 303.25 322.26 304.96 321.41 307.09 320.77 308.59 319.7 310.51 318.63 313.07 318.21 315.42 319.06 317.55 319.06 319.47 318.42 321.82 316.5 328.44 315.43 331.64 313.72 331.85 313.3 334.2 311.37 335.91 310.95 338.69 309.88 339.97 308.81 344.66 305.4 347.65 303.69 355.33 299.42 355.98 298.57 359.82 296.43 360.46 296 361.31 295.58 364.73 293.87 367.5 291.95 372.3 287.57 34.94 287.57 36.43 290.88 36.22 291.52"/><polygon class="cls-6" points="435.6 146.37 432.61 143.38 430.9 141.25 429.83 138.04 427.91 130.79 426.42 128.22 425.77 127.58 424.7 126.52 424.07 126.09 423.86 125.45 423.64 124.81 423.21 124.38 423 123.96 422.15 123.32 421.08 122.67 420.44 122.46 420.23 122.25 418.94 119.9 419.8 115.84 419.8 112.43 418.73 109.87 417.67 108.58 415.74 107.52 412.75 106.45 411.69 106.66 409.98 106.02 407.85 106.66 405.71 108.58 404.43 108.37 403.58 107.73 400.16 103.46 398.45 101.75 397.6 99.41 397.81 97.49 397.17 96.2 394.4 94.5 389.27 92.79 387.14 92.15 384.79 89.16 382.45 87.67 380.09 86.81 376.25 86.17 374.12 85.32 372.84 84.25 371.77 84.04 370.49 82.11 370.49 80.83 371.13 78.91 371.13 77.63 370.49 76.35 362.38 71.02 360.67 70.8 358.11 72.08 357.26 71.87 356.19 70.8 355.55 69.31 353.2 67.17 351.92 65.89 350.42 64.19 349.36 59.28 347.65 56.5 345.94 54.37 343.17 49.24 342.1 47.32 338.26 44.55 334.42 40.49 333.56 39.85 333.35 39.64 331.43 39.42 326.3 39.64 324.81 37.93 323.74 34.94 324.17 32.59 323.53 30.46 323.32 29.18 322.25 28.11 319.47 26.83 318.19 26.62 314.78 24.91 312.21 24.7 310.29 25.12 308.16 24.48 306.45 22.99 305.6 20.85 304.11 11.89 303.68 8.9 302.82 6.98 301.12 4.63 299.2 2.71 297.36 1.69 292.85 1.69 291.94 2.07 289.59 3.35 287.67 5.7 286.6 6.34 285.75 6.13 285.11 5.91 283.4 6.55 282.33 7.4 281.91 7.4 280.62 7.62 279.13 7.4 277.42 6.76 275.5 7.19 274.44 7.4 273.37 7.19 272.08 6.55 271.23 6.76 269.52 8.26 268.25 8.47 267.6 8.05 267.39 7.4 266.11 7.62 264.83 8.05 263.33 7.62 262.27 7.4 260.56 7.62 258.21 8.9 254.58 9.75 253.09 10.61 250.74 10.61 249.67 11.68 248.39 15.09 246.47 17.01 243.91 18.93 243.27 20.43 243.06 21.92 243.06 23.63 242.2 24.7 243.48 25.55 242.84 26.4 241.56 27.04 240.71 27.04 239.21 26.4 237.51 26.4 235.8 27.26 233.24 26.83 231.96 27.47 230.46 27.9 228.97 28.96 226.84 28.75 223.42 27.47 222.99 26.83 222.35 26.19 220.43 26.19 218.72 26.62 217.02 27.47 215.31 28.11 213.38 28.54 212.32 28.32 211.68 27.68 210.82 25.34 209.97 25.55 208.26 27.47 206.77 27.9 205.06 30.67 204.21 31.1 203.57 31.31 202.71 32.17 201.65 33.88 199.94 35.58 199.08 35.79 198.66 35.79 198.44 35.58 197.59 36.44 197.38 37.72 196.95 39.42 196.31 40.06 195.24 40.49 194.39 41.77 192.89 45.19 191.83 45.83 191.4 46.68 190.55 49.67 189.91 50.1 187.34 50.52 186.49 50.95 186.07 51.8 186.49 52.45 186.49 53.3 186.7 54.58 186.49 55.86 186.07 57.14 181.8 60.13 182.01 61.41 182.86 63.12 182.22 63.97 180.09 63.97 177.1 63.12 175.39 63.33 172.19 64.4 170.91 62.91 169.84 59.92 167.71 58.85 164.93 58.85 163.44 60.13 161.3 62.26 160.45 64.61 159.17 65.25 157.46 65.25 157.46 66.75 158.53 68.67 158.53 68.88 158.31 69.95 157.89 70.38 156.82 71.23 155.75 71.87 154.26 72.08 152.98 71.87 151.91 71.23 149.78 69.09 148.71 69.09 147.86 69.31 146.79 69.09 145.72 68.88 145.08 69.73 144.44 70.8 144.01 71.66 143.16 72.3 140.81 72.3 138.89 70.8 137.82 70.16 135.47 69.52 132.91 67.81 132.06 68.03 131.42 68.45 131.42 69.31 132.7 69.95 133.98 71.23 134.62 72.73 134.41 73.36 133.13 74.86 132.91 77 132.49 77.42 131.42 77.21 129.71 77 128.86 77.42 128 78.06 127.15 79.13 126.51 80.41 126.51 81.26 126.94 84.47 125.87 85.32 124.8 85.96 124.59 87.45 126.3 88.95 126.72 89.59 125.87 90.87 123.52 90.87 121.81 90.01 119.89 90.01 119.04 90.66 120.96 93.22 120.53 94.07 118.61 94.5 118.19 95.35 118.4 96.63 118.4 97.7 117.76 98.55 115.84 98.55 114.13 97.91 112.85 98.13 112.21 98.77 112.21 99.83 113.06 100.47 116.26 101.33 117.76 102.82 118.19 104.96 117.54 105.81 117.33 106.02 116.9 106.02 116.69 106.02 116.48 106.02 116.26 106.02 115.63 105.81 114.98 105.81 113.06 105.17 112.21 105.17 111.78 105.6 111.99 106.24 112.63 106.45 113.49 106.24 114.34 106.66 114.56 107.52 114.56 109.65 113.92 112 112.42 112.43 111.57 112.43 111.14 113.28 110.93 114.56 109.43 115.84 108.36 116.27 106.87 116.27 106.23 116.48 107.3 119.69 107.51 121.18 106.87 122.46 105.59 123.32 104.31 123.74 103.89 123.74 101.75 123.74 99.83 126.09 96.2 129.08 94.92 130.36 93.64 132.06 91.08 133.99 90.65 134.41 90.65 135.7 91.08 137.4 91.72 138.04 93.42 138.68 94.06 139.32 94.49 140.6 93.64 142.1 91.08 144.66 89.8 145.94 86.81 146.79 86.17 147.22 85.57 149 437.02 149 436.66 148.29 435.6 146.37"/><g id="intl_boundary" data-name="intl boundary"><polyline class="cls-7" points="68.24 361.75 68.02 361.97 67.6 363.25 68.02 364.53 69.3 364.74 70.8 364.74 74.43 362.18 75.49 361.97 76.56 361.97 78.91 361.11 80.19 360.47 82.33 360.47 83.18 361.11 83.82 362.39 83.39 364.95 83.61 366.66 84.46 367.73 87.02 370.5 87.23 371.36 88.3 373.07 89.37 373.92 94.49 374.13 95.98 374.56 97.48 375.63 99.62 378.83 100.25 381.18 100.68 382.88 102.6 387.58 103.67 388.01 105.38 388.01 107.09 388.86 107.72 390.36 108.79 392.06 108.79 392.92 108.15 394.62 108.58 395.69 109.01 395.91 109.22 396.33 110.72 397.82 113.28 399.75 117.97 402.1 120.32 403.16 122.67 405.73 123.73 408.72 124.8 410.21 127.15 412.13 128.43 414.05 128.86 415.54 130.35 417.46 131.84 418.53 134.62 419.6 137.82 420.24 140.17 420.45 143.16 420.88 146.36 421.52 152.76 421.95 154.05 421.52 155.75 420.03 157.25 419.18 158.31 419.18 160.88 421.52 161.3 422.59 162.37 426.43 163.44 428.14 166.21 428.99 166.64 428.99 169.2 429.2 171.98 430.06 176.88 431.13 179.66 431.13 183.07 431.34 185.21 431.98 189.05 430.7 191.4 429.63 192.47 429.85 192.68 429.85 194.18 430.49 196.1 433.05 197.59 433.69 197.81 432.41 196.95 429.2 196.95 428.99 196.95 427.07 196.31 423.44 196.95 420.24 197.16 419.39 199.08 416.61 201.01 415.33 202.07 415.12 204.42 412.77 205.49 411.06 206.13 408.07 206.77 402.31 207.62 400.18 209.76 397.61 209.54 396.33 209.12 395.91 204.85 391.85 203.99 390.57 204.85 389.29 207.41 387.8 209.12 386.94 211.89 383.74 216.8 382.24 219.36 380.54 223.21 376.91 224.91 374.56 226.41 370.29 226.41 369.01 224.91 367.94 223.85 366.24 223.85 365.81 224.06 364.53 223.42 362.82 220.43 359.83 217.02 357.7 215.95 356.63 216.16 355.13 217.44 353.21 220 350.23 222.35 349.37 223.21 349.16 224.49 348.52 227.9 348.09 231.53 348.3 233.03 347.88 234.52 345.1 235.16 343.82 239 340.41 241.13 337.63 243.06 330.16 245.19 328.24 247.75 325.89 250.31 324.82 251.17 324.82 258.64 327.81 260.99 328.02 262.7 327.81 266.54 325.89 268.25 326.32 269.74 325.46 270.81 324.61 271.45 323.55 274.22 321.41 275.93 320.13 278.92 320.55 281.91 321.62 284.25 323.11 288.52 323.97 290.87 323.11 293 323.33 296 324.4 298.98 324.18 300.9 323.11 303.25 322.26 304.96 321.41 307.09 320.77 308.59 319.7 310.51 318.63 313.07 318.21 315.42 319.06 317.55 319.06 319.47 318.42 321.82 316.5 328.44 315.43 331.64 313.72 331.85 313.3 334.2 311.37 335.91 310.95 338.69 309.88 339.97 308.81 344.66 305.4 347.65 303.69 355.33 299.42 355.98 298.57 359.82 296.43 360.46 296 361.31 295.58 364.73 293.87 367.5 291.95 372.41 287.47 373.48 287.25 374.33 287.89 375.61 288.96 376.68 288.75 377.54 284.48 379.03 282.99 382.66 282.99 384.79 282.56 385.86 281.7 386.5 281.06 387.35 278.72 386.93 276.37 385.65 273.17 384.15 268.25 383.51 267.61 381.59 266.98 380.09 265.91 379.67 264.84 379.46 263.56 380.09 260.78 382.23 256.3 382.87 253.1 383.08 247.33 384.36 244.99 384.36 244.13 383.73 243.06 382.66 240.08 383.3 238.37 385.22 236.02 387.35 234.74 388.21 233.89 388.21 230.05 388.42 228.98 389.27 227.27 390.77 226.63 394.19 226.2 396.75 223.43 399.09 222.79 399.73 221.93 404 220.87 406.78 220.44 407.42 220.65 408.06 220.65 409.55 220.23 410.41 218.95 410.62 215.11 409.55 212.33 410.19 211.47 411.05 211.26 414.46 211.05 415.53 210.41 416.17 209.77 415.96 208.91 415.32 208.27 413.82 207.63 411.47 206.35 411.26 205.07 411.26 202.94 412.75 199.09 412.12 196.53 411.47 192.05 411.69 191.2 413.18 189.91 414.46 190.13 416.81 189.06 418.09 186.07 419.37 184.36 421.5 183.3 426.2 181.8 428.76 181.59 430.04 180.74 432.82 179.88 433.89 179.24 435.38 175.19 437.3 172.62 438.15 169.42 437.94 169 437.94 166.22 438.37 165.37 440.93 163.02 440.72 161.95 439.86 159.18 438.15 157.25 436.66 157.04 436.02 154.27 437.3 150.85 437.3 149.57 436.66 148.29 435.6 146.37 432.61 143.38 430.9 141.25 429.83 138.04 427.91 130.79 426.42 128.22 425.77 127.58 424.7 126.52 424.07 126.09 423.86 125.45 423.64 124.81 423.21 124.38 423 123.96 422.15 123.32 421.08 122.67 420.44 122.46 420.23 122.25 418.94 119.9 419.8 115.84 419.8 112.43 418.73 109.87 417.67 108.58 415.74 107.52 412.75 106.45 411.69 106.66 409.98 106.02 407.85 106.66 405.71 108.58 404.43 108.37 403.58 107.73 400.16 103.46 398.45 101.75 397.6 99.41 397.81 97.49 397.17 96.2 394.4 94.5 389.27 92.79 387.14 92.15 384.79 89.16 382.45 87.67 380.09 86.81 376.25 86.17 374.12 85.32 372.84 84.25 371.77 84.04 370.49 82.11 370.49 80.83 371.13 78.91 371.13 77.63 370.49 76.35 362.38 71.02 360.67 70.8 358.11 72.08 357.26 71.87 356.19 70.8 355.55 69.31 353.2 67.17 351.92 65.89 350.42 64.19 349.36 59.28 347.65 56.5 345.94 54.37 343.17 49.24 342.1 47.32 338.26 44.55 334.42 40.49 333.56 39.85 333.35 39.64 331.43 39.42 326.3 39.64 324.81 37.93 323.74 34.94 324.17 32.59 323.53 30.46 323.32 29.18 322.25 28.11 319.47 26.83 318.19 26.62 314.78 24.91 312.21 24.7 310.29 25.12 308.16 24.48 306.45 22.99 305.6 20.85 304.11 11.89 303.68 8.9 302.82 6.98 301.12 4.63 299.2 2.71 297.27 1.64 294.5 1 291.94 2.07 289.59 3.35 287.67 5.7 286.6 6.34 285.75 6.13 285.11 5.91 283.4 6.55 282.33 7.4 281.91 7.4 280.62 7.62 279.13 7.4 277.42 6.76 275.5 7.19 274.44 7.4 273.37 7.19 272.08 6.55 271.23 6.76 269.52 8.26 268.25 8.47 267.6 8.05 267.39 7.4 266.11 7.62 264.83 8.05 263.33 7.62 262.27 7.4 260.56 7.62 258.21 8.9 254.58 9.75 253.09 10.61 250.74 10.61 249.67 11.68 248.39 15.09 246.47 17.01 243.91 18.93 243.27 20.43 243.06 21.92 243.06 23.63 242.2 24.7 243.48 25.55 242.84 26.4 241.56 27.04 240.71 27.04 239.21 26.4 237.51 26.4 235.8 27.26 233.24 26.83 231.96 27.47 230.46 27.9 228.97 28.96 226.84 28.75 223.42 27.47 222.99 26.83 222.35 26.19 220.43 26.19 218.72 26.62 217.02 27.47 215.31 28.11 213.38 28.54 212.32 28.32 211.68 27.68 210.82 25.34 209.97 25.55 208.26 27.47 206.77 27.9 205.06 30.67 204.21 31.1 203.57 31.31 202.71 32.17 201.65 33.88 199.94 35.58 199.08 35.8 198.66 35.8 198.44 35.58 197.59 36.44 197.38 37.72 196.95 39.42 196.31 40.06 195.24 40.49 194.39 41.77 192.89 45.19 191.83 45.83 191.4 46.68 190.55 49.67 189.91 50.1 187.34 50.52 186.49 50.95 186.07 51.8 186.49 52.45 186.49 53.3 186.7 54.58 186.49 55.86 186.07 57.14 181.8 60.13 182.01 61.41 182.86 63.12 182.22 63.97 180.09 63.97 177.1 63.12 175.39 63.33 172.19 64.4 170.91 62.91 169.84 59.92 167.71 58.85 164.93 58.85 163.44 60.13 161.3 62.26 160.45 64.61 159.17 65.25 157.46 65.25 157.46 66.75 158.53 68.67 158.53 68.88 158.31 69.95 157.89 70.38 156.82 71.23 155.75 71.87 154.26 72.08 152.98 71.87 151.91 71.23 149.78 69.09 148.71 69.09 147.86 69.31 146.79 69.09 145.72 68.88 145.08 69.73 144.44 70.8 144.01 71.66 143.16 72.3 140.81 72.3 138.89 70.8 137.82 70.16 135.47 69.52 132.91 67.81 132.06 68.03 131.42 68.45 131.42 69.31 132.7 69.95 133.98 71.23 134.62 72.73 134.41 73.36 133.13 74.86 132.91 77 132.49 77.42 131.42 77.21 129.71 77 128.86 77.42 128 78.06 127.15 79.13 126.51 80.41 126.51 81.26 126.94 84.47 125.87 85.32 124.8 85.96 124.59 87.45 126.3 88.95 126.72 89.59 125.87 90.87 123.52 90.87 121.81 90.01 119.89 90.01 119.04 90.66 120.96 93.22 120.53 94.07 118.61 94.5 118.19 95.35 118.4 96.63 118.4 97.7 117.76 98.55 115.84 98.55 114.13 97.91 112.85 98.13 112.21 98.77 112.21 99.83 113.06 100.47 116.26 101.33 117.76 102.82 118.19 104.96 117.54 105.81 117.33 106.02 116.9 106.02 116.69 106.02 116.48 106.02 116.26 106.02 115.63 105.81 114.98 105.81 113.06 105.17 112.21 105.17 111.78 105.6 111.99 106.24 112.63 106.45 113.49 106.24 114.34 106.66 114.56 107.52 114.56 109.65 113.92 112 112.42 112.43 111.57 112.43 111.14 113.28 110.93 114.56 109.43 115.84 108.36 116.27 106.87 116.27 106.23 116.48 107.3 119.69 107.51 121.18 106.87 122.46 105.59 123.32 104.31 123.74 103.89 123.74 101.75 123.74 99.83 126.09 96.2 129.08 94.92 130.36 93.64 132.06 91.08 133.99 90.65 134.41 90.65 135.7 91.08 137.4 91.72 138.04 93.42 138.68 94.06 139.32 94.49 140.6 93.64 142.1 91.08 144.66 89.8 145.94 86.81 146.79 86.17 147.22 85.53 149.14 85.1 149.36 79.98 149.14 78.7 149.78 78.27 150.64 78.48 151.28 79.55 152.34 80.83 153.41 81.47 154.05 81.26 154.69 80.62 155.34 78.48 156.19 77.63 156.61 77.2 157.04 76.35 157.89 75.92 159.82 75.49 165.37 75.07 166.01 73.15 165.58 71.65 164.94 69.94 165.79 72.93 170.28 73.36 172.2 72.93 173.69 71.86 174.12 69.73 174.55 68.88 175.19 66.1 180.09 64.39 182.44 62.26 183.94 61.83 184.79 62.05 186.28 62.05 188.21 60.34 189.49 58.84 189.27 58.63 189.06 57.78 188.85 56.28 189.06 54.15 190.13 53.3 190.77 52.44 191.62 51.8 194.18 52.23 196.75 52.44 197.81 52.23 198.45 51.59 198.67 51.16 198.88 49.88 198.45 47.96 198.03 46.68 198.03 45.18 198.67 44.12 199.74 43.26 202.08 42.19 202.94 40.91 203.36 40.06 203.15 38.35 201.44 37.71 201.66 37.07 202.08 36.43 202.72 35.79 202.94 34.72 203.58 33.87 205.5 33.02 206.14 32.38 206.14 28.11 205.07 26.18 204.86 24.91 205.07 22.98 206.99 22.13 207.42 20.21 207.42 19.36 208.06 17.86 209.77 17.65 211.26 17.01 213.4 13.59 215.11 12.31 215.74 11.24 213.61 10.18 213.18 9.75 213.4 8.9 214.25 9.11 216.38 8.68 217.88 8.68 219.38 7.83 220.87 6.76 220.44 5.27 219.16 5.05 218.09 3.35 216.81 1.64 216.81 1 217.88 1.21 218.95 2.28 220.87 2.28 222.15 1 223.85 4.84 230.05 5.48 231.54 6.55 232.82 7.83 233.46 9.75 234.96 11.24 236.45 12.95 238.8 13.81 240.51 16.58 243.5 18.29 246.27 21.7 255.02 22.77 257.8 23.84 259.93 27.25 268.47 29.39 273.38 33.66 283.84 34.51 286.62 36.43 290.88 36.22 291.52 38.78 296.65 38.99 296.86 39.42 297.71 40.91 298.78 41.98 299.21 49.88 307.53 52.87 310.52 54.36 317.57 56.07 323.97 56.92 327.38 57.35 327.81 62.9 326.96 69.09 325.46 69.94 325.68 71.01 326.75 71.44 327.38 71.44 328.24 70.58 330.16 70.37 331.65 69.52 332.51 68.24 332.51 67.81 333.36 68.66 335.28 68.45 335.71 66.74 336.14 64.82 337.84 64.18 341.9 63.97 346.17 63.97 350.23 64.18 352.15 67.6 353.86 68.24 354.5 68.24 355.56 66.96 357.27 69.94 358.98 70.16 360.05 68.24 361.75"/></g><text class="cls-8" transform="translate(205.47 84.23)">Map<tspan x="0" y="42">Les</tspan><tspan x="71.52" y="42">o</tspan><tspan class="cls-9" x="102.47" y="42">t</tspan><tspan x="117.44" y="42">ho</tspan></text><text class="cls-10" transform="translate(526.82 276.55)">#MapLes<tspan class="cls-9" x="836.04" y="0">o</tspan><tspan class="cls-11" x="957.42" y="0">t</tspan><tspan x="1016.11" y="0">ho</tspan></text></svg>