<?xml version="1.0" encoding="utf-8"?>
<!-- Generator: Adobe Illustrator 20.1.0, SVG Export Plug-In . SVG Version: 6.00 Build 0)  -->
<!DOCTYPE svg PUBLIC "-//W3C//DTD SVG 1.1//EN" "http://www.w3.org/Graphics/SVG/1.1/DTD/svg11.dtd">
<svg version="1.1" id="Layer_1" xmlns="http://www.w3.org/2000/svg" xmlns:xlink="http://www.w3.org/1999/xlink" x="0px" y="0px"
	 width="1772.8px" height="434.7px" viewBox="0 0 1772.8 434.7" enable-background="new 0 0 1772.8 434.7" xml:space="preserve">
<title>maplesotho-logo</title>
<polygon fill="#FFFFFF" points="377.5,284.7 379,283.4 382.7,283.4 384.8,282.8 385.9,281.8 386.5,281.1 387.4,278.7 386.9,276.4 
	385.6,273.2 384.1,268.3 383.5,267.6 381.6,267 380.1,265.9 379.7,264.8 379.5,263.6 380.1,260.8 382.2,256.3 382.9,253.1 
	383.3,247.3 384.8,245 384.8,244.1 384,243.1 382.8,240.1 383.4,238.4 385.2,236 387.2,234.7 387.8,233.9 387.8,230.1 388.2,229 
	389.2,227.3 390.7,226.6 394.2,226.2 396.7,223.4 399.1,222.8 399.7,221.9 404,220.9 406.8,220.3 407.4,220.4 408.1,220.4 
	409.5,220.1 410.4,218.9 410.6,215.1 409.5,212.3 410.2,211.5 411,211.3 414.5,211.1 415.5,210.4 416.2,209.8 416,208.9 
	415.3,208.3 413.8,207.6 411.2,206.4 410.8,205.1 410.8,202.9 412.5,199.1 412,196.5 411.4,192.1 411.7,191.2 413.2,189.9 
	414.5,190.1 416.8,189.1 418.1,186.1 419.4,184.4 421.5,183.3 426.2,181.8 428.8,181.6 430,180.7 432.8,179.9 433.9,179.2 
	435.4,175.2 437.3,172.6 438.1,169.4 437.8,169 437.8,166.2 438.3,165.4 440.9,163 440.7,161.9 439.9,159.2 438.1,157.2 436.7,157 
	435.8,154.3 436.8,150.9 436.8,149.6 437,149.4 85.6,149.4 85.5,149.3 85.1,149.4 80,149.2 78.7,149.8 78.3,150.6 78.5,151.3 
	79.6,152.4 80.8,153.4 81.5,154.1 81.3,154.7 80.6,155.3 78.5,156.2 77.6,156.6 77.2,157 76.3,157.9 75.9,159.8 75.5,165.4 
	75.1,166 73.2,165.6 71.7,164.9 69.9,165.8 72.9,170.3 73.4,172.2 72.9,173.7 71.9,174.1 69.7,174.6 68.9,175.2 66.1,180.1 
	64.4,182.4 62.3,183.9 61.7,184.8 61.8,186.3 61.8,188.2 60.2,189.5 58.8,189.3 58.6,189.1 57.8,188.9 56.3,189.1 54.2,190.1 
	53.3,190.8 52.4,191.6 51.8,194.2 52.2,196.8 52.4,197.8 52.2,198.4 51.6,198.7 51.2,198.9 49.9,198.6 48,198.4 46.7,198.4 
	45.2,198.8 44.1,199.8 43.3,202.1 42.2,203 40.9,203.4 40.1,203.1 38.3,201.4 37.7,201.7 37.1,202.1 36.4,202.7 35.8,202.9 
	34.7,203.6 33.9,205.6 33,206.4 32.4,206.4 28.1,205.2 26.2,204.9 24.9,205.1 23,207 22.1,207.4 20.2,207.4 19.4,208 17.9,209.8 
	17.6,211.2 17,213.4 13.6,215.1 12.3,215.7 11.2,213.6 10.2,213.2 9.8,213.4 8.9,214.2 9.2,216.4 8.8,217.9 8.8,219.4 7.9,220.9 
	6.8,220.4 5.3,219.2 5.1,217.9 3.3,216.4 1.6,216.4 1,217.7 1,218.8 1.8,220.9 1.8,222.1 0.8,223.9 4.7,230.1 5.4,231.5 6.5,232.8 
	7.8,233.5 9.7,235 11.2,236.4 12.9,238.8 13.8,240.5 16.6,243.5 18.3,246.3 21.7,255 22.8,257.8 23.8,259.9 27.2,268.5 29.4,273.4 
	33.7,283.8 34.5,286.8 35.6,289.4 370.8,289.4 372.4,287.7 373.5,287.4 374.3,287.9 375.6,289 376.7,288.9 "/>
<path id="path1873" stroke="#000000" stroke-width="0.88" d="M221.3,167.9c-1.6,0-3.3,1.9-3.3,1.9l0.1,19.6l-6.2,6.4h5V207
	l-29.6,39.8l-4.4-1.5l-7.6,16.3c0,0,18.9,11.8,46.3,11.5c30.1-0.4,46.5-12.1,46.5-12.1l-7.9-16.1l-3.9,1.7l-30-39.6v-11.6h5
	l-6.8-6.4v-19.5C224.6,169.6,222.9,167.8,221.3,167.9z"/>
<path id="path2760" fill="none" stroke="#000000" stroke-width="4.4" d="M231.5,214.7h-20.4c0,0-7.4-15.6-6.2-26.6
	c1.2-11.1,7.6-16.4,16-16.5c10-0.1,15.2,4.9,16.8,16S231.5,214.7,231.5,214.7z"/>
<path id="path3649" fill="#FFFFFF" d="M185.5,252c-0.3,0.5-2.8,5.3-2.8,5.3l4.2-0.9L185.5,252z"/>
<path id="path3651" fill="#FFFFFF" d="M188,258.3l-4.4,1.4l5.4,2.1L188,258.3z"/>
<path id="path3653" fill="#FFFFFF" d="M190,252.1l2.2,6.6l5.5-1.6l-1.4-3.1L190,252.1z"/>
<path id="path3655" fill="#FFFFFF" d="M193.4,261l0.8,2.7l7.2,1.8l-2.9-6.1L193.4,261z"/>
<path id="path3657" fill="#FFFFFF" d="M201.5,255.4l2.6,6.1l5.5-2.1l-1.8-2.7L201.5,255.4z"/>
<path id="path3659" fill="#FFFFFF" d="M205,263.8l0.9,2.3l8.5,1.2l-3.6-5.6L205,263.8z"/>
<path id="path3661" fill="#FFFFFF" d="M213.2,257.2l3.1,5.5l7.9-2.9l-0.9-2.1L213.2,257.2z"/>
<path id="path3663" fill="#FFFFFF" d="M217.7,264.7l1.7,2.9l9.8-0.3l-3.7-5.5L217.7,264.7z"/>
<path id="path3665" fill="#FFFFFF" d="M228.1,257.4l2.7,4.6l6.2-3l-1.7-2.5L228.1,257.4z"/>
<path id="path3667" fill="#FFFFFF" d="M238.3,260.9l-6.2,3.1l1.7,2.7l8.4-1.3L238.3,260.9z"/>
<path id="path3669" fill="#FFFFFF" d="M240.3,256.1l3.2,4l5.2-4.1l-1.8-1.9L240.3,256.1z"/>
<path id="path3671" fill="#FFFFFF" d="M249.9,258.2l-5,3.8l1.3,2.3l6.9-1.8L249.9,258.2z"/>
<path id="path3673" fill="#FFFFFF" d="M256.8,250.3l1.2,1.8l-3.5,5.1l-3.6-4.6L256.8,250.3z"/>
<path id="path3675" fill="#FFFFFF" d="M259.2,254.7l2.1,4.2l-4.2,1.5l-0.3-2L259.2,254.7z"/>
<polygon fill="none" points="85.5,149.1 85.1,149.4 80,149.1 78.7,149.8 78.3,150.6 78.5,151.3 79.6,152.3 80.8,153.4 81.5,154.1 
	81.3,154.7 80.6,155.3 78.5,156.2 77.6,156.6 77.2,157 76.3,157.9 75.9,159.8 75.5,165.4 75.1,166 73.2,165.6 71.7,164.9 
	69.9,165.8 72.9,170.3 73.4,172.2 72.9,173.7 71.9,174.1 69.7,174.6 68.9,175.2 66.1,180.1 64.4,182.4 62.3,183.9 61.8,184.8 
	62,186.3 62,188.2 60.3,189.5 58.8,189.3 58.6,189.1 57.8,188.9 56.3,189.1 54.2,190.1 53.3,190.8 52.4,191.6 51.8,194.2 
	52.2,196.8 52.4,197.8 52.2,198.4 51.6,198.7 51.2,198.9 49.9,198.4 48,198 46.7,198 45.2,198.7 44.1,199.7 43.3,202.1 42.2,202.9 
	40.9,203.4 40.1,203.1 38.3,201.4 37.7,201.7 37.1,202.1 36.4,202.7 35.8,202.9 34.7,203.6 33.9,205.5 33,206.1 32.4,206.1 
	28.1,205.1 26.2,204.9 24.9,205.1 23,207 22.1,207.4 20.2,207.4 19.4,208.1 17.9,209.8 17.6,211.3 17,213.4 13.6,215.1 12.3,215.7 
	11.2,213.6 10.2,213.2 9.8,213.4 8.9,214.2 9.1,216.4 8.7,217.9 8.7,219.4 7.8,220.9 6.8,220.4 5.3,219.2 5.1,218.1 3.3,216.8 
	1.6,216.8 1,217.9 1.2,218.9 2.3,220.9 2.3,222.1 1,223.9 4.8,230.1 5.5,231.5 6.6,232.8 7.8,233.5 9.8,235 11.2,236.4 12.9,238.8 
	13.8,240.5 16.6,243.5 18.3,246.3 21.7,255 22.8,257.8 23.8,259.9 27.2,268.5 29.4,273.4 33.7,283.8 34.5,286.6 34.9,287.6 
	372.3,287.6 372.4,287.5 373.5,287.2 373.9,287.6 376.9,287.6 377.5,284.5 379,283 382.7,283 384.8,282.6 385.9,281.7 386.5,281.1 
	387.4,278.7 386.9,276.4 385.6,273.2 384.1,268.2 383.5,267.6 381.6,267 380.1,265.9 379.7,264.8 379.5,263.6 380.1,260.8 
	382.2,256.3 382.9,253.1 383.1,247.3 384.4,245 384.4,244.1 383.7,243.1 382.7,240.1 383.3,238.4 385.2,236 387.4,234.7 
	388.2,233.9 388.2,230.1 388.4,229 389.3,227.3 390.8,226.6 394.2,226.2 396.8,223.4 399.1,222.8 399.7,221.9 404,220.9 
	406.8,220.4 407.4,220.6 408.1,220.6 409.5,220.2 410.4,218.9 410.6,215.1 409.5,212.3 410.2,211.5 411,211.3 414.5,211.1 
	415.5,210.4 416.2,209.8 416,208.9 415.3,208.3 413.8,207.6 411.5,206.4 411.3,205.1 411.3,202.9 412.8,199.1 412.1,196.5 
	411.5,192.1 411.7,191.2 413.2,189.9 414.5,190.1 416.8,189.1 418.1,186.1 419.4,184.4 421.5,183.3 426.2,181.8 428.8,181.6 
	430,180.7 432.8,179.9 433.9,179.2 435.4,175.2 437.3,172.6 438.1,169.4 437.9,169 437.9,166.2 438.4,165.4 440.9,163 440.7,161.9 
	439.9,159.2 438.1,157.2 436.7,157 436,154.3 437.3,150.9 437.3,149.6 437,149 85.6,149 "/>
<polygon fill="none" points="297.3,1.6 294.5,1 292.9,1.7 297.4,1.7 "/>
<polygon fill="none" points="373.5,287.2 372.4,287.5 372.3,287.6 373.9,287.6 "/>
<polygon fill="#009448" points="374.3,287.9 375.6,289 376.7,288.8 376.9,287.6 373.9,287.6 "/>
<polygon fill="#009448" points="36.2,291.5 38.8,296.6 39,296.9 39.4,297.7 40.9,298.8 42,299.2 49.9,307.5 52.9,310.5 54.4,317.6 
	56.1,324 56.9,327.4 57.3,327.8 62.9,327 69.1,325.5 69.9,325.7 71,326.8 71.4,327.4 71.4,328.2 70.6,330.2 70.4,331.6 69.5,332.5 
	68.2,332.5 67.8,333.4 68.7,335.3 68.4,335.7 66.7,336.1 64.8,337.8 64.2,341.9 64,346.2 64,350.2 64.2,352.1 67.6,353.9 
	68.2,354.5 68.2,355.6 67,357.3 69.9,359 70.2,360 68.2,361.8 68,362 67.6,363.2 68,364.5 69.3,364.7 70.8,364.7 74.4,362.2 
	75.5,362 76.6,362 78.9,361.1 80.2,360.5 82.3,360.5 83.2,361.1 83.8,362.4 83.4,365 83.6,366.7 84.5,367.7 87,370.5 87.2,371.4 
	88.3,373.1 89.4,373.9 94.5,374.1 96,374.6 97.5,375.6 99.6,378.8 100.2,381.2 100.7,382.9 102.6,387.6 103.7,388 105.4,388 
	107.1,388.9 107.7,390.4 108.8,392.1 108.8,392.9 108.2,394.6 108.6,395.7 109,395.9 109.2,396.3 110.7,397.8 113.3,399.8 
	118,402.1 120.3,403.2 122.7,405.7 123.7,408.7 124.8,410.2 127.2,412.1 128.4,414 128.9,415.5 130.4,417.5 131.8,418.5 
	134.6,419.6 137.8,420.2 140.2,420.5 143.2,420.9 146.4,421.5 152.8,422 154.1,421.5 155.8,420 157.2,419.2 158.3,419.2 
	160.9,421.5 161.3,422.6 162.4,426.4 163.4,428.1 166.2,429 166.6,429 169.2,429.2 172,430.1 176.9,431.1 179.7,431.1 183.1,431.3 
	185.2,432 189.1,430.7 191.4,429.6 192.5,429.9 192.7,429.9 194.2,430.5 196.1,433 197.6,433.7 197.8,432.4 196.9,429.2 196.9,429 
	196.9,427.1 196.3,423.4 196.9,420.2 197.2,419.4 199.1,416.6 201,415.3 202.1,415.1 204.4,412.8 205.5,411.1 206.1,408.1 
	206.8,402.3 207.6,400.2 209.8,397.6 209.5,396.3 209.1,395.9 204.9,391.9 204,390.6 204.9,389.3 207.4,387.8 209.1,386.9 
	211.9,383.7 216.8,382.2 219.4,380.5 223.2,376.9 224.9,374.6 226.4,370.3 226.4,369 224.9,367.9 223.9,366.2 223.9,365.8 
	224.1,364.5 223.4,362.8 220.4,359.8 217,357.7 215.9,356.6 216.2,355.1 217.4,353.2 220,350.2 222.4,349.4 223.2,349.2 
	224.5,348.5 227.9,348.1 231.5,348.3 233,347.9 234.5,345.1 235.2,343.8 239,340.4 241.1,337.6 243.1,330.2 245.2,328.2 
	247.8,325.9 250.3,324.8 251.2,324.8 258.6,327.8 261,328 262.7,327.8 266.5,325.9 268.2,326.3 269.7,325.5 270.8,324.6 
	271.5,323.5 274.2,321.4 275.9,320.1 278.9,320.5 281.9,321.6 284.2,323.1 288.5,324 290.9,323.1 293,323.3 296,324.4 299,324.2 
	300.9,323.1 303.2,322.3 305,321.4 307.1,320.8 308.6,319.7 310.5,318.6 313.1,318.2 315.4,319.1 317.5,319.1 319.5,318.4 
	321.8,316.5 328.4,315.4 331.6,313.7 331.9,313.3 334.2,311.4 335.9,311 338.7,309.9 340,308.8 344.7,305.4 347.6,303.7 
	355.3,299.4 356,298.6 359.8,296.4 360.5,296 361.3,295.6 364.7,293.9 367.5,292 372.3,287.6 34.9,287.6 36.4,290.9 "/>
<polygon fill="#28388F" points="435.6,146.4 432.6,143.4 430.9,141.2 429.8,138 427.9,130.8 426.4,128.2 425.8,127.6 424.7,126.5 
	424.1,126.1 423.9,125.4 423.6,124.8 423.2,124.4 423,124 422.1,123.3 421.1,122.7 420.4,122.5 420.2,122.2 418.9,119.9 
	419.8,115.8 419.8,112.4 418.7,109.9 417.7,108.6 415.7,107.5 412.8,106.4 411.7,106.7 410,106 407.9,106.7 405.7,108.6 
	404.4,108.4 403.6,107.7 400.2,103.5 398.5,101.8 397.6,99.4 397.8,97.5 397.2,96.2 394.4,94.5 389.3,92.8 387.1,92.2 384.8,89.2 
	382.5,87.7 380.1,86.8 376.2,86.2 374.1,85.3 372.8,84.2 371.8,84 370.5,82.1 370.5,80.8 371.1,78.9 371.1,77.6 370.5,76.3 
	362.4,71 360.7,70.8 358.1,72.1 357.3,71.9 356.2,70.8 355.5,69.3 353.2,67.2 351.9,65.9 350.4,64.2 349.4,59.3 347.6,56.5 
	345.9,54.4 343.2,49.2 342.1,47.3 338.3,44.5 334.4,40.5 333.6,39.8 333.4,39.6 331.4,39.4 326.3,39.6 324.8,37.9 323.7,34.9 
	324.2,32.6 323.5,30.5 323.3,29.2 322.2,28.1 319.5,26.8 318.2,26.6 314.8,24.9 312.2,24.7 310.3,25.1 308.2,24.5 306.5,23 
	305.6,20.9 304.1,11.9 303.7,8.9 302.8,7 301.1,4.6 299.2,2.7 297.4,1.7 292.9,1.7 291.9,2.1 289.6,3.3 287.7,5.7 286.6,6.3 
	285.8,6.1 285.1,5.9 283.4,6.6 282.3,7.4 281.9,7.4 280.6,7.6 279.1,7.4 277.4,6.8 275.5,7.2 274.4,7.4 273.4,7.2 272.1,6.6 
	271.2,6.8 269.5,8.3 268.2,8.5 267.6,8.1 267.4,7.4 266.1,7.6 264.8,8.1 263.3,7.6 262.3,7.4 260.6,7.6 258.2,8.9 254.6,9.8 
	253.1,10.6 250.7,10.6 249.7,11.7 248.4,15.1 246.5,17 243.9,18.9 243.3,20.4 243.1,21.9 243.1,23.6 242.2,24.7 243.5,25.5 
	242.8,26.4 241.6,27 240.7,27 239.2,26.4 237.5,26.4 235.8,27.3 233.2,26.8 232,27.5 230.5,27.9 229,29 226.8,28.8 223.4,27.5 
	223,26.8 222.4,26.2 220.4,26.2 218.7,26.6 217,27.5 215.3,28.1 213.4,28.5 212.3,28.3 211.7,27.7 210.8,25.3 210,25.5 208.3,27.5 
	206.8,27.9 205.1,30.7 204.2,31.1 203.6,31.3 202.7,32.2 201.6,33.9 199.9,35.6 199.1,35.8 198.7,35.8 198.4,35.6 197.6,36.4 
	197.4,37.7 196.9,39.4 196.3,40.1 195.2,40.5 194.4,41.8 192.9,45.2 191.8,45.8 191.4,46.7 190.6,49.7 189.9,50.1 187.3,50.5 
	186.5,51 186.1,51.8 186.5,52.5 186.5,53.3 186.7,54.6 186.5,55.9 186.1,57.1 181.8,60.1 182,61.4 182.9,63.1 182.2,64 180.1,64 
	177.1,63.1 175.4,63.3 172.2,64.4 170.9,62.9 169.8,59.9 167.7,58.8 164.9,58.8 163.4,60.1 161.3,62.3 160.4,64.6 159.2,65.2 
	157.5,65.2 157.5,66.8 158.5,68.7 158.5,68.9 158.3,69.9 157.9,70.4 156.8,71.2 155.8,71.9 154.3,72.1 153,71.9 151.9,71.2 
	149.8,69.1 148.7,69.1 147.9,69.3 146.8,69.1 145.7,68.9 145.1,69.7 144.4,70.8 144,71.7 143.2,72.3 140.8,72.3 138.9,70.8 
	137.8,70.2 135.5,69.5 132.9,67.8 132.1,68 131.4,68.4 131.4,69.3 132.7,69.9 134,71.2 134.6,72.7 134.4,73.4 133.1,74.9 132.9,77 
	132.5,77.4 131.4,77.2 129.7,77 128.9,77.4 128,78.1 127.2,79.1 126.5,80.4 126.5,81.3 126.9,84.5 125.9,85.3 124.8,86 124.6,87.4 
	126.3,88.9 126.7,89.6 125.9,90.9 123.5,90.9 121.8,90 119.9,90 119,90.7 121,93.2 120.5,94.1 118.6,94.5 118.2,95.3 118.4,96.6 
	118.4,97.7 117.8,98.6 115.8,98.6 114.1,97.9 112.8,98.1 112.2,98.8 112.2,99.8 113.1,100.5 116.3,101.3 117.8,102.8 118.2,105 
	117.5,105.8 117.3,106 116.9,106 116.7,106 116.5,106 116.3,106 115.6,105.8 115,105.8 113.1,105.2 112.2,105.2 111.8,105.6 
	112,106.2 112.6,106.4 113.5,106.2 114.3,106.7 114.6,107.5 114.6,109.7 113.9,112 112.4,112.4 111.6,112.4 111.1,113.3 
	110.9,114.6 109.4,115.8 108.4,116.3 106.9,116.3 106.2,116.5 107.3,119.7 107.5,121.2 106.9,122.5 105.6,123.3 104.3,123.7 
	103.9,123.7 101.8,123.7 99.8,126.1 96.2,129.1 94.9,130.4 93.6,132.1 91.1,134 90.7,134.4 90.7,135.7 91.1,137.4 91.7,138 
	93.4,138.7 94.1,139.3 94.5,140.6 93.6,142.1 91.1,144.7 89.8,145.9 86.8,146.8 86.2,147.2 85.6,149 437,149 436.7,148.3 "/>
<g id="intl_boundary">
	<polyline fill="none" stroke="#6D6E70" stroke-width="2" stroke-linecap="round" stroke-linejoin="round" points="68.2,361.8 
		68,362 67.6,363.2 68,364.5 69.3,364.7 70.8,364.7 74.4,362.2 75.5,362 76.6,362 78.9,361.1 80.2,360.5 82.3,360.5 83.2,361.1 
		83.8,362.4 83.4,365 83.6,366.7 84.5,367.7 87,370.5 87.2,371.4 88.3,373.1 89.4,373.9 94.5,374.1 96,374.6 97.5,375.6 99.6,378.8 
		100.2,381.2 100.7,382.9 102.6,387.6 103.7,388 105.4,388 107.1,388.9 107.7,390.4 108.8,392.1 108.8,392.9 108.2,394.6 
		108.6,395.7 109,395.9 109.2,396.3 110.7,397.8 113.3,399.8 118,402.1 120.3,403.2 122.7,405.7 123.7,408.7 124.8,410.2 
		127.2,412.1 128.4,414 128.9,415.5 130.4,417.5 131.8,418.5 134.6,419.6 137.8,420.2 140.2,420.5 143.2,420.9 146.4,421.5 
		152.8,422 154.1,421.5 155.8,420 157.2,419.2 158.3,419.2 160.9,421.5 161.3,422.6 162.4,426.4 163.4,428.1 166.2,429 166.6,429 
		169.2,429.2 172,430.1 176.9,431.1 179.7,431.1 183.1,431.3 185.2,432 189.1,430.7 191.4,429.6 192.5,429.9 192.7,429.9 
		194.2,430.5 196.1,433 197.6,433.7 197.8,432.4 196.9,429.2 196.9,429 196.9,427.1 196.3,423.4 196.9,420.2 197.2,419.4 
		199.1,416.6 201,415.3 202.1,415.1 204.4,412.8 205.5,411.1 206.1,408.1 206.8,402.3 207.6,400.2 209.8,397.6 209.5,396.3 
		209.1,395.9 204.9,391.9 204,390.6 204.9,389.3 207.4,387.8 209.1,386.9 211.9,383.7 216.8,382.2 219.4,380.5 223.2,376.9 
		224.9,374.6 226.4,370.3 226.4,369 224.9,367.9 223.9,366.2 223.9,365.8 224.1,364.5 223.4,362.8 220.4,359.8 217,357.7 
		215.9,356.6 216.2,355.1 217.4,353.2 220,350.2 222.4,349.4 223.2,349.2 224.5,348.5 227.9,348.1 231.5,348.3 233,347.9 
		234.5,345.1 235.2,343.8 239,340.4 241.1,337.6 243.1,330.2 245.2,328.2 247.8,325.9 250.3,324.8 251.2,324.8 258.6,327.8 261,328 
		262.7,327.8 266.5,325.9 268.2,326.3 269.7,325.5 270.8,324.6 271.5,323.5 274.2,321.4 275.9,320.1 278.9,320.5 281.9,321.6 
		284.2,323.1 288.5,324 290.9,323.1 293,323.3 296,324.4 299,324.2 300.9,323.1 303.2,322.3 305,321.4 307.1,320.8 308.6,319.7 
		310.5,318.6 313.1,318.2 315.4,319.1 317.5,319.1 319.5,318.4 321.8,316.5 328.4,315.4 331.6,313.7 331.9,313.3 334.2,311.4 
		335.9,311 338.7,309.9 340,308.8 344.7,305.4 347.6,303.7 355.3,299.4 356,298.6 359.8,296.4 360.5,296 361.3,295.6 364.7,293.9 
		367.5,292 372.4,287.5 373.5,287.2 374.3,287.9 375.6,289 376.7,288.8 377.5,284.5 379,283 382.7,283 384.8,282.6 385.9,281.7 
		386.5,281.1 387.4,278.7 386.9,276.4 385.6,273.2 384.1,268.2 383.5,267.6 381.6,267 380.1,265.9 379.7,264.8 379.5,263.6 
		380.1,260.8 382.2,256.3 382.9,253.1 383.1,247.3 384.4,245 384.4,244.1 383.7,243.1 382.7,240.1 383.3,238.4 385.2,236 
		387.4,234.7 388.2,233.9 388.2,230.1 388.4,229 389.3,227.3 390.8,226.6 394.2,226.2 396.8,223.4 399.1,222.8 399.7,221.9 
		404,220.9 406.8,220.4 407.4,220.6 408.1,220.6 409.5,220.2 410.4,218.9 410.6,215.1 409.5,212.3 410.2,211.5 411,211.3 
		414.5,211.1 415.5,210.4 416.2,209.8 416,208.9 415.3,208.3 413.8,207.6 411.5,206.4 411.3,205.1 411.3,202.9 412.8,199.1 
		412.1,196.5 411.5,192.1 411.7,191.2 413.2,189.9 414.5,190.1 416.8,189.1 418.1,186.1 419.4,184.4 421.5,183.3 426.2,181.8 
		428.8,181.6 430,180.7 432.8,179.9 433.9,179.2 435.4,175.2 437.3,172.6 438.1,169.4 437.9,169 437.9,166.2 438.4,165.4 440.9,163 
		440.7,161.9 439.9,159.2 438.1,157.2 436.7,157 436,154.3 437.3,150.9 437.3,149.6 436.7,148.3 435.6,146.4 432.6,143.4 
		430.9,141.2 429.8,138 427.9,130.8 426.4,128.2 425.8,127.6 424.7,126.5 424.1,126.1 423.9,125.4 423.6,124.8 423.2,124.4 423,124 
		422.1,123.3 421.1,122.7 420.4,122.5 420.2,122.2 418.9,119.9 419.8,115.8 419.8,112.4 418.7,109.9 417.7,108.6 415.7,107.5 
		412.8,106.4 411.7,106.7 410,106 407.9,106.7 405.7,108.6 404.4,108.4 403.6,107.7 400.2,103.5 398.5,101.8 397.6,99.4 397.8,97.5 
		397.2,96.2 394.4,94.5 389.3,92.8 387.1,92.2 384.8,89.2 382.5,87.7 380.1,86.8 376.2,86.2 374.1,85.3 372.8,84.2 371.8,84 
		370.5,82.1 370.5,80.8 371.1,78.9 371.1,77.6 370.5,76.3 362.4,71 360.7,70.8 358.1,72.1 357.3,71.9 356.2,70.8 355.5,69.3 
		353.2,67.2 351.9,65.9 350.4,64.2 349.4,59.3 347.6,56.5 345.9,54.4 343.2,49.2 342.1,47.3 338.3,44.5 334.4,40.5 333.6,39.8 
		333.4,39.6 331.4,39.4 326.3,39.6 324.8,37.9 323.7,34.9 324.2,32.6 323.5,30.5 323.3,29.2 322.2,28.1 319.5,26.8 318.2,26.6 
		314.8,24.9 312.2,24.7 310.3,25.1 308.2,24.5 306.5,23 305.6,20.9 304.1,11.9 303.7,8.9 302.8,7 301.1,4.6 299.2,2.7 297.3,1.6 
		294.5,1 291.9,2.1 289.6,3.3 287.7,5.7 286.6,6.3 285.8,6.1 285.1,5.9 283.4,6.6 282.3,7.4 281.9,7.4 280.6,7.6 279.1,7.4 
		277.4,6.8 275.5,7.2 274.4,7.4 273.4,7.2 272.1,6.6 271.2,6.8 269.5,8.3 268.2,8.5 267.6,8.1 267.4,7.4 266.1,7.6 264.8,8.1 
		263.3,7.6 262.3,7.4 260.6,7.6 258.2,8.9 254.6,9.8 253.1,10.6 250.7,10.6 249.7,11.7 248.4,15.1 246.5,17 243.9,18.9 243.3,20.4 
		243.1,21.9 243.1,23.6 242.2,24.7 243.5,25.5 242.8,26.4 241.6,27 240.7,27 239.2,26.4 237.5,26.4 235.8,27.3 233.2,26.8 232,27.5 
		230.5,27.9 229,29 226.8,28.8 223.4,27.5 223,26.8 222.4,26.2 220.4,26.2 218.7,26.6 217,27.5 215.3,28.1 213.4,28.5 212.3,28.3 
		211.7,27.7 210.8,25.3 210,25.5 208.3,27.5 206.8,27.9 205.1,30.7 204.2,31.1 203.6,31.3 202.7,32.2 201.6,33.9 199.9,35.6 
		199.1,35.8 198.7,35.8 198.4,35.6 197.6,36.4 197.4,37.7 196.9,39.4 196.3,40.1 195.2,40.5 194.4,41.8 192.9,45.2 191.8,45.8 
		191.4,46.7 190.6,49.7 189.9,50.1 187.3,50.5 186.5,51 186.1,51.8 186.5,52.5 186.5,53.3 186.7,54.6 186.5,55.9 186.1,57.1 
		181.8,60.1 182,61.4 182.9,63.1 182.2,64 180.1,64 177.1,63.1 175.4,63.3 172.2,64.4 170.9,62.9 169.8,59.9 167.7,58.8 164.9,58.8 
		163.4,60.1 161.3,62.3 160.4,64.6 159.2,65.2 157.5,65.2 157.5,66.8 158.5,68.7 158.5,68.9 158.3,69.9 157.9,70.4 156.8,71.2 
		155.8,71.9 154.3,72.1 153,71.9 151.9,71.2 149.8,69.1 148.7,69.1 147.9,69.3 146.8,69.1 145.7,68.9 145.1,69.7 144.4,70.8 
		144,71.7 143.2,72.3 140.8,72.3 138.9,70.8 137.8,70.2 135.5,69.5 132.9,67.8 132.1,68 131.4,68.4 131.4,69.3 132.7,69.9 134,71.2 
		134.6,72.7 134.4,73.4 133.1,74.9 132.9,77 132.5,77.4 131.4,77.2 129.7,77 128.9,77.4 128,78.1 127.2,79.1 126.5,80.4 126.5,81.3 
		126.9,84.5 125.9,85.3 124.8,86 124.6,87.4 126.3,88.9 126.7,89.6 125.9,90.9 123.5,90.9 121.8,90 119.9,90 119,90.7 121,93.2 
		120.5,94.1 118.6,94.5 118.2,95.3 118.4,96.6 118.4,97.7 117.8,98.6 115.8,98.6 114.1,97.9 112.8,98.1 112.2,98.8 112.2,99.8 
		113.1,100.5 116.3,101.3 117.8,102.8 118.2,105 117.5,105.8 117.3,106 116.9,106 116.7,106 116.5,106 116.3,106 115.6,105.8 
		115,105.8 113.1,105.2 112.2,105.2 111.8,105.6 112,106.2 112.6,106.4 113.5,106.2 114.3,106.7 114.6,107.5 114.6,109.7 113.9,112 
		112.4,112.4 111.6,112.4 111.1,113.3 110.9,114.6 109.4,115.8 108.4,116.3 106.9,116.3 106.2,116.5 107.3,119.7 107.5,121.2 
		106.9,122.5 105.6,123.3 104.3,123.7 103.9,123.7 101.8,123.7 99.8,126.1 96.2,129.1 94.9,130.4 93.6,132.1 91.1,134 90.7,134.4 
		90.7,135.7 91.1,137.4 91.7,138 93.4,138.7 94.1,139.3 94.5,140.6 93.6,142.1 91.1,144.7 89.8,145.9 86.8,146.8 86.2,147.2 
		85.5,149.1 85.1,149.4 80,149.1 78.7,149.8 78.3,150.6 78.5,151.3 79.6,152.3 80.8,153.4 81.5,154.1 81.3,154.7 80.6,155.3 
		78.5,156.2 77.6,156.6 77.2,157 76.3,157.9 75.9,159.8 75.5,165.4 75.1,166 73.2,165.6 71.7,164.9 69.9,165.8 72.9,170.3 
		73.4,172.2 72.9,173.7 71.9,174.1 69.7,174.6 68.9,175.2 66.1,180.1 64.4,182.4 62.3,183.9 61.8,184.8 62,186.3 62,188.2 
		60.3,189.5 58.8,189.3 58.6,189.1 57.8,188.9 56.3,189.1 54.2,190.1 53.3,190.8 52.4,191.6 51.8,194.2 52.2,196.8 52.4,197.8 
		52.2,198.4 51.6,198.7 51.2,198.9 49.9,198.4 48,198 46.7,198 45.2,198.7 44.1,199.7 43.3,202.1 42.2,202.9 40.9,203.4 40.1,203.1 
		38.3,201.4 37.7,201.7 37.1,202.1 36.4,202.7 35.8,202.9 34.7,203.6 33.9,205.5 33,206.1 32.4,206.1 28.1,205.1 26.2,204.9 
		24.9,205.1 23,207 22.1,207.4 20.2,207.4 19.4,208.1 17.9,209.8 17.6,211.3 17,213.4 13.6,215.1 12.3,215.7 11.2,213.6 10.2,213.2 
		9.8,213.4 8.9,214.2 9.1,216.4 8.7,217.9 8.7,219.4 7.8,220.9 6.8,220.4 5.3,219.2 5.1,218.1 3.3,216.8 1.6,216.8 1,217.9 
		1.2,218.9 2.3,220.9 2.3,222.1 1,223.9 4.8,230.1 5.5,231.5 6.6,232.8 7.8,233.5 9.8,235 11.2,236.4 12.9,238.8 13.8,240.5 
		16.6,243.5 18.3,246.3 21.7,255 22.8,257.8 23.8,259.9 27.2,268.5 29.4,273.4 33.7,283.8 34.5,286.6 36.4,290.9 36.2,291.5 
		38.8,296.6 39,296.9 39.4,297.7 40.9,298.8 42,299.2 49.9,307.5 52.9,310.5 54.4,317.6 56.1,324 56.9,327.4 57.3,327.8 62.9,327 
		69.1,325.5 69.9,325.7 71,326.8 71.4,327.4 71.4,328.2 70.6,330.2 70.4,331.6 69.5,332.5 68.2,332.5 67.8,333.4 68.7,335.3 
		68.4,335.7 66.7,336.1 64.8,337.8 64.2,341.9 64,346.2 64,350.2 64.2,352.1 67.6,353.9 68.2,354.5 68.2,355.6 67,357.3 69.9,359 
		70.2,360 68.2,361.8 	"/>
</g>
<g enable-background="new    ">
	<path fill="#FFFFFF" d="M208.7,84.2l8.1-41.3L230,72.8l13.7-29.9l7.3,41.3h-6L241.3,61l-11.4,25l-11.1-25l-4.1,23.2H208.7z"/>
	<path fill="#FFFFFF" d="M275.9,60h5.6v24.3h-5.6v-2.5c-2.3,2.2-4.8,3.2-7.4,3.2c-3.4,0-6.1-1.2-8.3-3.6c-2.2-2.5-3.3-5.6-3.3-9.3
		c0-3.6,1.1-6.7,3.3-9.1s4.9-3.6,8.2-3.6c2.8,0,5.4,1.2,7.6,3.5V60z M262.6,72c0,2.3,0.6,4.2,1.9,5.7c1.3,1.5,2.9,2.2,4.8,2.2
		c2.1,0,3.8-0.7,5-2.1c1.3-1.5,1.9-3.4,1.9-5.6c0-2.3-0.6-4.1-1.9-5.6c-1.3-1.4-2.9-2.2-5-2.2c-1.9,0-3.5,0.7-4.8,2.2
		C263.3,68,262.6,69.9,262.6,72z"/>
	<path fill="#FFFFFF" d="M294.2,97.4h-5.6V60h5.6v2.6c2.2-2.2,4.7-3.3,7.5-3.3c3.3,0,6.1,1.2,8.2,3.7c2.2,2.4,3.3,5.5,3.3,9.2
		c0,3.6-1.1,6.7-3.3,9.1c-2.2,2.4-4.9,3.6-8.2,3.6c-2.8,0-5.4-1.1-7.6-3.4V97.4z M307.5,72.3c0-2.3-0.6-4.2-1.9-5.7
		c-1.3-1.5-2.9-2.2-4.8-2.2c-2.1,0-3.7,0.7-5,2.1c-1.3,1.4-1.9,3.3-1.9,5.6c0,2.3,0.6,4.2,1.9,5.6c1.3,1.4,2.9,2.2,5,2.2
		c1.9,0,3.5-0.7,4.8-2.2C306.9,76.3,307.5,74.4,307.5,72.3z"/>
</g>
<g enable-background="new    ">
	<path fill="#FFFFFF" d="M215.9,87.8v33h11.3v5.5h-17.1V87.8H215.9z"/>
	<path fill="#FFFFFF" d="M253.7,115.4h-17.4c0.1,2,0.8,3.6,1.9,4.8c1.1,1.2,2.6,1.7,4.4,1.7c1.4,0,2.5-0.3,3.5-1
		c0.9-0.7,1.9-1.9,3.1-3.7l4.7,2.6c-0.7,1.2-1.5,2.3-2.3,3.2c-0.8,0.9-1.7,1.6-2.6,2.2c-0.9,0.6-1.9,1-3,1.3
		c-1.1,0.3-2.2,0.4-3.5,0.4c-3.6,0-6.5-1.2-8.7-3.5c-2.2-2.3-3.3-5.4-3.3-9.3c0-3.8,1.1-6.9,3.2-9.3c2.1-2.3,5-3.5,8.5-3.5
		c3.6,0,6.4,1.1,8.5,3.4c2.1,2.3,3.1,5.4,3.1,9.4L253.7,115.4z M248,110.8c-0.8-3-2.7-4.5-5.7-4.5c-0.7,0-1.3,0.1-1.9,0.3
		s-1.1,0.5-1.6,0.9c-0.5,0.4-0.9,0.9-1.3,1.4c-0.3,0.5-0.6,1.2-0.8,1.9H248z"/>
	<path fill="#FFFFFF" d="M273.9,106.1l-4.6,2.5c-0.7-1.5-1.6-2.2-2.7-2.2c-0.5,0-1,0.2-1.3,0.5c-0.4,0.3-0.5,0.8-0.5,1.3
		c0,0.9,1.1,1.9,3.2,2.8c3,1.3,5,2.5,6,3.5c1,1.1,1.5,2.5,1.5,4.4c0,2.3-0.9,4.3-2.6,5.9c-1.7,1.5-3.7,2.2-6.1,2.2
		c-4.1,0-6.9-2-8.6-6l4.8-2.2c0.7,1.2,1.2,1.9,1.5,2.2c0.7,0.6,1.5,0.9,2.4,0.9c1.9,0,2.8-0.9,2.8-2.6c0-1-0.7-1.9-2.2-2.8
		c-0.6-0.3-1.1-0.6-1.7-0.8s-1.1-0.5-1.7-0.8c-1.6-0.8-2.8-1.6-3.4-2.4c-0.8-1-1.3-2.3-1.3-3.9c0-2.1,0.7-3.9,2.2-5.2
		c1.5-1.4,3.3-2.1,5.4-2.1C270.1,101.3,272.4,102.9,273.9,106.1z"/>
</g>
<g enable-background="new    ">
	<path fill="#FFFFFF" d="M279.4,113.9c0-3.5,1.3-6.5,3.8-8.9c2.5-2.5,5.6-3.7,9.2-3.7c3.6,0,6.7,1.2,9.2,3.7
		c2.5,2.5,3.7,5.5,3.7,9.1c0,3.6-1.3,6.7-3.8,9.1c-2.5,2.4-5.6,3.7-9.3,3.7c-3.6,0-6.7-1.2-9.1-3.7
		C280.6,120.7,279.4,117.6,279.4,113.9z M285.1,114c0,2.4,0.6,4.3,1.9,5.8c1.3,1.4,3.1,2.1,5.3,2.1c2.2,0,3.9-0.7,5.3-2.1
		c1.3-1.4,2-3.3,2-5.7c0-2.4-0.7-4.2-2-5.7c-1.3-1.4-3.1-2.1-5.3-2.1c-2.1,0-3.9,0.7-5.2,2.1C285.8,109.9,285.1,111.8,285.1,114z"/>
</g>
<g enable-background="new    ">
	<path fill="#FFFFFF" d="M317.3,107.2v19h-5.6v-19h-2.4V102h2.4v-8.9h5.6v8.9h4.4v5.2H317.3z"/>
</g>
<g enable-background="new    ">
	<path fill="#FFFFFF" d="M326.4,84.2h5.6V104c2-1.8,4.2-2.7,6.6-2.7c2.7,0,4.9,0.9,6.6,2.7c1.4,1.5,2.1,4,2.1,7.4v14.9h-5.6v-14.3
		c0-1.9-0.3-3.3-1-4.2c-0.7-0.9-1.8-1.3-3.3-1.3c-2,0-3.3,0.6-4.1,1.8c-0.8,1.2-1.2,3.3-1.2,6.3v11.7h-5.6V84.2z"/>
	<path fill="#FFFFFF" d="M353.3,113.9c0-3.5,1.3-6.5,3.8-8.9c2.5-2.5,5.6-3.7,9.2-3.7c3.6,0,6.7,1.2,9.2,3.7
		c2.5,2.5,3.7,5.5,3.7,9.1c0,3.6-1.3,6.7-3.8,9.1c-2.5,2.4-5.6,3.7-9.3,3.7c-3.6,0-6.7-1.2-9.1-3.7
		C354.5,120.7,353.3,117.6,353.3,113.9z M359,114c0,2.4,0.6,4.3,1.9,5.8c1.3,1.4,3.1,2.1,5.3,2.1c2.2,0,3.9-0.7,5.3-2.1
		c1.3-1.4,2-3.3,2-5.7c0-2.4-0.7-4.2-2-5.7c-1.3-1.4-3.1-2.1-5.3-2.1c-2.1,0-3.9,0.7-5.2,2.1C359.7,109.9,359,111.8,359,114z"/>
</g>
<g enable-background="new    ">
	<path fill="#435A63" d="M646.6,168.2v17.2h-23.7l-3.5,28h21.7v17.2h-23.8l-5.8,46.7l-17.2-2.2l5.6-44.4h-29l-5.9,46.7l-17.4-2.2
		l5.6-44.8h-22.3v-16.8h24.7l3.5-28h-22.6v-17.2h24.7l5.4-43.8l17.1,2.2l-5.2,41.5h28.8l5.5-43.8l17.1,2.2l-5.2,41.5H646.6z
		 M605.2,185.3h-28.7l-3.5,28h28.9L605.2,185.3z"/>
	<path fill="#435A63" d="M663.1,276.5l31.7-162.1l51.8,117.2l53.6-117.2l28.5,162.1h-23.3l-14.6-91l-44.6,97.9l-43.4-98l-16.2,91.1
		H663.1z"/>
	<path fill="#435A63" d="M926.5,181.4h22.1v95.1h-22.1v-10c-9,8.5-18.8,12.7-29.2,12.7c-13.2,0-24-4.8-32.6-14.3
		c-8.5-9.7-12.8-21.8-12.8-36.3c0-14.3,4.3-26.1,12.8-35.6c8.5-9.5,19.2-14.3,32-14.3c11.1,0,21,4.6,29.8,13.7V181.4z M874.4,228.7
		c0,9.1,2.4,16.5,7.3,22.3c5,5.8,11.3,8.7,18.9,8.7c8.1,0,14.7-2.8,19.7-8.4c5-5.8,7.5-13.2,7.5-22.1c0-8.9-2.5-16.3-7.5-22.1
		c-5-5.7-11.5-8.5-19.5-8.5c-7.6,0-13.9,2.9-18.9,8.6C876.9,213,874.4,220.2,874.4,228.7z"/>
	<path fill="#435A63" d="M998.3,328.3h-22V181.4h22v10.4c8.7-8.7,18.5-13,29.5-13c13.1,0,23.9,4.8,32.3,14.5
		c8.6,9.6,12.9,21.6,12.9,36.2c0,14.3-4.3,26.1-12.8,35.6c-8.5,9.4-19.1,14.2-32,14.2c-11.1,0-21.1-4.5-29.9-13.4V328.3z
		 M1050.6,229.6c0-9.1-2.5-16.5-7.4-22.3c-5-5.8-11.3-8.7-18.9-8.7c-8.1,0-14.6,2.8-19.6,8.4c-5,5.6-7.5,13-7.5,22.1
		c0,8.9,2.5,16.3,7.5,22.1c4.9,5.7,11.5,8.5,19.5,8.5c7.6,0,13.9-2.9,18.8-8.6C1048,245.3,1050.6,238.2,1050.6,229.6z"/>
	<path fill="#435A63" d="M1123.2,125.8v129.4h44.3v21.4h-67.1V125.8H1123.2z"/>
	<path fill="#435A63" d="M1271.5,234.2h-68.2c0.6,7.8,3.1,14,7.6,18.7c4.5,4.6,10.3,6.8,17.3,6.8c5.5,0,10-1.3,13.6-3.9
		c3.5-2.6,7.5-7.4,12-14.5l18.6,10.4c-2.9,4.9-5.9,9.1-9.1,12.5c-3.2,3.5-6.6,6.3-10.3,8.6c-3.6,2.2-7.6,3.9-11.8,4.9
		c-4.2,1-8.8,1.6-13.8,1.6c-14.2,0-25.6-4.6-34.2-13.7c-8.6-9.2-12.9-21.4-12.9-36.5c0-15,4.2-27.2,12.5-36.5
		c8.4-9.2,19.5-13.8,33.4-13.8c14,0,25.1,4.5,33.2,13.4c8.1,8.9,12.1,21.1,12.1,36.8L1271.5,234.2z M1249,216.2
		c-3.1-11.7-10.4-17.6-22.2-17.6c-2.7,0-5.2,0.4-7.5,1.2c-2.3,0.8-4.5,2-6.4,3.5c-1.9,1.5-3.6,3.4-4.9,5.5s-2.4,4.6-3.1,7.3H1249z"
		/>
	<path fill="#435A63" d="M1350.8,197.6l-18.2,9.7c-2.9-5.9-6.4-8.8-10.6-8.8c-2,0-3.7,0.7-5.2,2c-1.4,1.3-2.1,3-2.1,5.1
		c0,3.6,4.2,7.3,12.7,10.8c11.7,5,19.5,9.6,23.5,13.9c4,4.2,6.1,9.9,6.1,17.1c0,9.2-3.4,16.9-10.2,23c-6.6,5.9-14.5,8.8-23.8,8.8
		c-16,0-27.2-7.8-33.9-23.3l18.8-8.7c2.6,4.6,4.6,7.5,6,8.7c2.7,2.5,5.9,3.7,9.6,3.7c7.4,0,11.1-3.4,11.1-10.2
		c0-3.9-2.9-7.6-8.6-10.9c-2.2-1.1-4.4-2.2-6.6-3.2c-2.2-1-4.5-2.1-6.7-3.2c-6.4-3.1-10.9-6.2-13.5-9.4c-3.3-4-5-9.1-5-15.3
		c0-8.3,2.8-15.1,8.5-20.5c5.8-5.4,12.8-8.1,21.1-8.1C1335.9,178.8,1344.9,185.1,1350.8,197.6z"/>
</g>
<g>
	<g enable-background="new    ">
		<path fill="#435A63" d="M1372.2,228.3c0-13.7,4.9-25.4,14.7-35.1c9.8-9.6,21.8-14.5,35.9-14.5c14.2,0,26.2,4.9,36.1,14.6
			c9.8,9.7,14.6,21.6,14.6,35.7c0,14.3-4.9,26.2-14.7,35.8c-9.9,9.6-22,14.4-36.4,14.4c-14.3,0-26.2-4.9-35.8-14.6
			C1377.1,255,1372.2,242.9,1372.2,228.3z M1394.7,228.7c0,9.5,2.5,17,7.6,22.6c5.2,5.6,12.1,8.4,20.6,8.4c8.6,0,15.5-2.8,20.6-8.3
			c5.1-5.5,7.7-12.9,7.7-22.2c0-9.2-2.6-16.6-7.7-22.2c-5.2-5.6-12.1-8.4-20.6-8.4c-8.4,0-15.2,2.8-20.4,8.4
			C1397.3,212.6,1394.7,219.8,1394.7,228.7z"/>
	</g>
</g>
<g>
	<g enable-background="new    ">
		<path fill="#435A63" d="M1520.8,201.9v74.6h-22v-74.6h-9.4v-20.5h9.4v-34.9h22v34.9h17.1v20.5H1520.8z"/>
	</g>
</g>
<g>
	<g enable-background="new    ">
		<path fill="#435A63" d="M1556.8,111.6h22v77.7c7.8-7,16.4-10.5,25.9-10.5c10.7,0,19.3,3.5,25.8,10.4c5.5,6.1,8.2,15.7,8.2,29v58.3
			h-22v-56.2c0-7.6-1.4-13.1-4.1-16.6c-2.7-3.4-7-5.1-13-5.1c-7.7,0-13.1,2.4-16.2,7.1c-3.1,4.8-4.6,13.1-4.6,24.8v46h-22V111.6z"/>
		<path fill="#435A63" d="M1662,228.3c0-13.7,4.9-25.4,14.7-35.1c9.8-9.6,21.8-14.5,35.9-14.5c14.2,0,26.2,4.9,36.1,14.6
			c9.8,9.7,14.6,21.6,14.6,35.7c0,14.3-4.9,26.2-14.7,35.8c-9.9,9.6-22,14.4-36.4,14.4c-14.3,0-26.2-4.9-35.8-14.6
			C1666.8,255,1662,242.9,1662,228.3z M1684.4,228.7c0,9.5,2.5,17,7.6,22.6c5.2,5.6,12.1,8.4,20.6,8.4c8.6,0,15.5-2.8,20.6-8.3
			c5.1-5.5,7.7-12.9,7.7-22.2c0-9.2-2.6-16.6-7.7-22.2c-5.2-5.6-12.1-8.4-20.6-8.4c-8.4,0-15.2,2.8-20.4,8.4
			C1687,212.6,1684.4,219.8,1684.4,228.7z"/>
	</g>
</g>
</svg>
